<svg width="1228" height="152" viewBox="0 0 1228 152" fill="none" xmlns="http://www.w3.org/2000/svg">
<path d="M84.384 31.728C84.64 33.1787 84.8107 34.2027 84.896 34.8C85.0667 35.312 85.152 36.0373 85.152 36.976C85.152 39.792 84.512 42.4373 83.232 44.912C82.0373 47.3013 80.3733 49.008 78.24 50.032C76.5333 47.728 74.4427 45.7653 71.968 44.144C69.4933 42.4373 66.7627 41.072 63.776 40.048C60.8747 38.9387 57.8453 38.128 54.688 37.616C51.5307 37.104 48.4587 36.848 45.472 36.848C42.4853 36.848 39.6693 37.104 37.024 37.616C34.464 38.0427 32.16 38.6827 30.112 39.536C28.1493 40.304 26.5707 41.2853 25.376 42.48C24.2667 43.6747 23.712 45.04 23.712 46.576C23.968 48.4533 25.12 50.3733 27.168 52.336C29.216 54.2133 31.7333 56.0907 34.72 57.968C37.7067 59.76 40.992 61.552 44.576 63.344C48.2453 65.136 51.8293 66.8427 55.328 68.464C59.68 70.512 63.4347 72.432 66.592 74.224C69.7493 75.9307 72.352 77.8507 74.4 79.984C76.448 82.032 77.984 84.3787 79.008 87.024C80.032 89.6693 80.544 92.8693 80.544 96.624C80.544 100.976 79.8187 105.072 78.368 108.912C76.9173 112.667 74.784 115.952 71.968 118.768C69.2373 121.584 65.9093 123.76 61.984 125.296C58.0587 126.917 53.664 127.728 48.8 127.728C44.0213 127.728 38.8587 127.003 33.312 125.552C27.7653 124.101 22.56 122.096 17.696 119.536C12.9173 117.061 8.90667 114.203 5.664 110.96C2.50667 107.632 0.928 104.133 0.928 100.464C0.928 98.7573 1.39733 96.5813 2.336 93.936C3.36 91.2907 5.152 88.5173 7.712 85.616C7.968 88.176 9.33333 91.2053 11.808 94.704C14.368 98.2027 18.1653 101.445 23.2 104.432C27.8933 107.163 32.7147 109.168 37.664 110.448C42.6987 111.643 47.392 112.24 51.744 112.24C56.5227 112.24 60.4053 111.643 63.392 110.448C66.3787 109.253 68.7253 107.845 70.432 106.224C72.1387 104.517 73.3333 102.811 74.016 101.104C74.6987 99.3973 75.0827 98.032 75.168 97.008C75.0827 95.3013 74.272 93.68 72.736 92.144C71.2853 90.5227 69.28 88.9867 66.72 87.536C64.2453 86 61.344 84.464 58.016 82.928C54.688 81.392 51.232 79.856 47.648 78.32C42.272 75.9307 37.6213 73.712 33.696 71.664C29.856 69.5307 26.656 67.3973 24.096 65.264C21.6213 63.0453 19.7867 60.7413 18.592 58.352C17.4827 55.9627 16.928 53.232 16.928 50.16C16.928 45.3813 18.3787 40.8587 21.28 36.592C24.1813 32.3253 28.3627 29.0827 33.824 26.864C36.5547 25.6693 39.456 24.816 42.528 24.304C45.6853 23.792 48.7573 23.536 51.744 23.536C57.376 23.536 62.88 24.304 68.256 25.84C73.632 27.376 79.008 29.3387 84.384 31.728ZM134.451 66.288C135.304 66.288 136.286 66.4587 137.395 66.8C138.59 67.056 139.656 67.44 140.595 67.952C141.534 68.3787 142.302 68.848 142.899 69.36C143.582 69.872 143.923 70.3413 143.923 70.768C142.216 74.352 140.638 77.9787 139.187 81.648C137.736 85.232 136.499 88.688 135.475 92.016C134.451 95.344 133.64 98.4587 133.043 101.36C132.531 104.261 132.275 106.779 132.275 108.912C132.275 111.301 132.531 113.307 133.043 114.928C133.555 116.464 134.408 117.573 135.603 118.256C134.579 118.939 133.256 119.493 131.635 119.92C130.014 120.347 128.563 120.56 127.283 120.56C122.675 120.56 120.371 117.403 120.371 111.088C120.371 106.224 121.992 99.568 125.235 91.12C123.528 95.0453 121.566 98.7573 119.347 102.256C117.128 105.669 114.867 108.699 112.563 111.344C110.259 113.989 107.912 116.165 105.523 117.872C103.219 119.493 101.086 120.475 99.123 120.816C95.9657 120.645 93.4057 119.152 91.443 116.336C89.4803 113.435 88.499 109.765 88.499 105.328C88.499 100.549 89.523 95.5147 91.571 90.224C93.619 84.9333 96.2217 80.0267 99.379 75.504C102.622 70.9813 106.12 67.2267 109.875 64.24C113.63 61.168 117.256 59.5467 120.755 59.376C121.608 59.632 122.547 60.144 123.571 60.912C124.68 61.68 125.704 62.576 126.643 63.6C127.667 64.624 128.52 65.6907 129.203 66.8C129.886 67.824 130.27 68.72 130.355 69.488C126.942 70 123.4 71.664 119.731 74.48C116.147 77.296 112.862 80.7093 109.875 84.72C106.974 88.6453 104.584 92.8693 102.707 97.392C100.83 101.915 99.891 106.139 99.891 110.064C99.891 111.685 100.488 112.709 101.683 113.136C104.158 112.624 107.016 110.533 110.259 106.864C113.502 103.109 117.427 97.3493 122.035 89.584C122.888 88.048 123.827 86.3413 124.851 84.464C125.96 82.5867 127.07 80.624 128.179 78.576C129.288 76.528 130.355 74.48 131.379 72.432C132.488 70.2987 133.512 68.2507 134.451 66.288ZM224.4 78.704C223.035 78.7893 221.371 79.6853 219.408 81.392C217.445 83.0133 215.312 85.1467 213.008 87.792C210.789 90.352 208.443 93.2107 205.968 96.368C203.579 99.5253 201.232 102.683 198.928 105.84C196.709 108.912 194.619 111.813 192.656 114.544C190.693 117.275 189.029 119.451 187.664 121.072C185.787 120.304 184.165 119.195 182.8 117.744C181.435 116.208 180.453 114.331 179.856 112.112C180.283 109.467 180.88 106.736 181.648 103.92C182.416 101.019 183.397 98.032 184.592 94.96C185.872 91.888 187.408 88.688 189.2 85.36C191.077 81.9467 193.339 78.3627 195.984 74.608C194.704 74.6933 192.955 75.632 190.736 77.424C188.517 79.1307 186.128 81.392 183.568 84.208C181.008 86.9387 178.363 90.0533 175.632 93.552C172.901 96.9653 170.341 100.336 167.952 103.664C164.795 108.101 162.149 111.984 160.016 115.312C157.968 118.64 156.475 120.603 155.536 121.2C153.317 119.579 151.781 117.829 150.928 115.952C150.075 114.075 149.435 111.984 149.008 109.68C149.093 107.632 149.392 105.072 149.904 102C150.501 98.928 151.312 95.7707 152.336 92.528C154.299 86.2987 156.816 80.112 159.888 73.968C163.045 67.824 166.075 62.192 168.976 57.072C171.365 57.584 173.499 58.3947 175.376 59.504C177.339 60.6133 179.387 62.2347 181.52 64.368C180.667 67.0133 179.344 69.8293 177.552 72.816C175.76 75.7173 173.883 78.7893 171.92 82.032C169.957 85.2747 168.165 88.6027 166.544 92.016C164.923 95.4293 163.856 98.8853 163.344 102.384C165.733 98.9707 168.549 95.0453 171.792 90.608C175.12 86.1707 178.491 81.9893 181.904 78.064C185.403 74.1387 188.859 70.8107 192.272 68.08C195.685 65.3493 198.757 63.984 201.488 63.984C202.512 63.984 203.621 64.1547 204.816 64.496C206.011 64.8373 207.12 65.264 208.144 65.776C209.168 66.288 210.021 66.8 210.704 67.312C211.387 67.7387 211.771 68.08 211.856 68.336C211.429 70.0427 210.405 72.3893 208.784 75.376C207.248 78.2773 205.584 81.3493 203.792 84.592C202 87.8347 200.336 90.992 198.8 94.064C197.264 97.0507 196.368 99.44 196.112 101.232C200.293 95.5147 204.219 90.352 207.888 85.744C211.557 81.0507 215.013 77.04 218.256 73.712C221.499 70.384 224.485 67.824 227.216 66.032C230.032 64.24 232.677 63.344 235.152 63.344C236.859 63.344 238.437 63.8133 239.888 64.752C241.424 65.6053 242.491 66.8853 243.088 68.592C242.32 71.152 241.04 74.224 239.248 77.808C237.541 81.392 235.792 85.1893 234 89.2C232.208 93.1253 230.587 97.008 229.136 100.848C227.771 104.688 227.088 108.144 227.088 111.216C227.088 113.008 227.344 114.203 227.856 114.8C228.368 115.312 229.093 115.568 230.032 115.568C231.056 115.568 231.995 115.397 232.848 115.056C233.787 114.629 234.469 114.416 234.896 114.416C235.408 114.757 235.707 115.184 235.792 115.696C235.877 116.208 235.92 116.677 235.92 117.104C234.213 118.469 232.464 119.579 230.672 120.432C228.88 121.371 226.875 121.84 224.656 121.84C222.608 121.84 220.901 121.499 219.536 120.816C218.256 120.133 217.189 119.195 216.336 118C215.483 116.805 214.885 115.44 214.544 113.904C214.203 112.368 214.032 110.704 214.032 108.912C214.032 106.011 214.416 103.152 215.184 100.336C215.952 97.4347 216.848 94.704 217.872 92.144C218.981 89.4987 220.133 87.0667 221.328 84.848C222.523 82.544 223.547 80.496 224.4 78.704ZM248.419 109.424C248.419 108.656 248.462 107.717 248.547 106.608C248.718 105.413 248.974 103.877 249.315 102C249.656 100.037 250.083 97.6907 250.595 94.96C251.192 92.2293 251.918 88.944 252.771 85.104C252.942 84.2507 253.326 82.8853 253.923 81.008C254.52 79.1307 255.288 77.168 256.227 75.12C257.251 72.9867 258.446 70.9387 259.811 68.976C261.262 67.0133 262.968 65.5627 264.931 64.624C266.382 64.9653 268.302 65.8613 270.691 67.312C273.08 68.6773 275.128 70.5973 276.835 73.072C274.872 75.2907 273.208 77.5093 271.843 79.728C270.563 81.9467 269.368 84.2507 268.259 86.64C267.235 89.0293 266.254 91.504 265.315 94.064C264.462 96.624 263.48 99.312 262.371 102.128C261.432 104.517 260.579 106.992 259.811 109.552C259.043 112.027 258.616 114.203 258.531 116.08C258.531 117.616 258.488 118.683 258.403 119.28C258.403 119.963 258.19 120.304 257.763 120.304C257.422 120.304 256.739 120.091 255.715 119.664C254.691 119.237 253.624 118.597 252.515 117.744C251.491 116.805 250.552 115.653 249.699 114.288C248.846 112.923 248.419 111.301 248.419 109.424ZM272.867 53.872C272.867 53.36 272.995 52.592 273.251 51.568C272.824 51.1413 272.44 50.5013 272.099 49.648C271.843 48.7947 271.715 48.0267 271.715 47.344C271.715 46.576 271.8 45.552 271.971 44.272C272.227 42.9067 272.526 41.456 272.867 39.92C273.208 38.384 273.635 36.8053 274.147 35.184C274.659 33.4773 275.171 31.9413 275.683 30.576C276.707 30.576 277.944 30.8747 279.395 31.472C280.931 31.984 282.467 32.7093 284.003 33.648C285.539 34.5013 286.947 35.4827 288.227 36.592C289.507 37.616 290.488 38.5973 291.171 39.536C290.232 40.4747 288.995 41.7973 287.459 43.504C285.923 45.1253 284.43 46.8747 282.979 48.752C281.528 50.544 280.206 52.2507 279.011 53.872C277.816 55.4933 277.048 56.6453 276.707 57.328C275.683 57.1573 274.787 56.7307 274.019 56.048C273.251 55.28 272.867 54.5547 272.867 53.872ZM285.218 68.976C284.791 68.464 284.407 67.3973 284.066 65.776C283.725 64.0693 283.554 62.6187 283.554 61.424C285.773 61.5947 287.906 61.7653 289.954 61.936C292.002 62.0213 293.879 62.1067 295.586 62.192C296.866 59.632 298.231 57.1147 299.682 54.64C301.218 52.08 302.669 49.776 304.034 47.728C305.485 45.5947 306.807 43.8027 308.002 42.352C309.282 40.9013 310.263 39.9627 310.946 39.536C311.799 39.536 312.866 39.7067 314.146 40.048C315.511 40.304 316.877 40.688 318.242 41.2C319.607 41.6267 320.845 42.096 321.954 42.608C323.063 43.12 323.831 43.632 324.258 44.144C321.698 47.3867 319.479 50.416 317.602 53.232C315.81 55.9627 313.847 59.12 311.714 62.704C313.421 62.704 315.127 62.6613 316.834 62.576C318.626 62.4907 320.418 62.3627 322.21 62.192C322.637 62.6187 322.978 63.1733 323.234 63.856C323.49 64.4533 323.618 65.0933 323.618 65.776C319.437 67.312 314.359 68.1653 308.386 68.336C306.253 72.432 304.333 76.528 302.626 80.624C301.005 84.6347 299.597 88.5173 298.402 92.272C297.293 96.0267 296.397 99.568 295.714 102.896C295.117 106.224 294.818 109.211 294.818 111.856C294.818 115.611 296.226 117.701 299.042 118.128C301.602 117.787 304.034 117.147 306.338 116.208C308.642 115.269 310.69 114.075 312.482 112.624C312.994 113.392 313.293 114.032 313.378 114.544C312.866 115.312 311.97 116.208 310.69 117.232C309.495 118.256 308.173 119.237 306.722 120.176C305.271 121.2 303.863 122.053 302.498 122.736C301.133 123.419 300.109 123.803 299.426 123.888C297.293 123.803 295.159 123.333 293.026 122.48C290.893 121.627 288.93 120.56 287.138 119.28C285.431 118 284.023 116.592 282.914 115.056C281.805 113.435 281.25 111.856 281.25 110.32C281.25 108.272 281.506 105.712 282.018 102.64C282.615 99.4827 283.426 96.0693 284.45 92.4C285.474 88.7307 286.669 84.8907 288.034 80.88C289.399 76.8693 290.893 72.9013 292.514 68.976H285.218ZM322.538 115.824C322.538 112.837 322.837 109.339 323.434 105.328C324.031 101.232 324.885 96.88 325.994 92.272C327.189 87.664 328.554 82.8427 330.09 77.808C331.711 72.7733 333.503 67.7387 335.466 62.704C337.173 58.1813 339.135 53.616 341.354 49.008C343.658 44.4 346.133 39.8773 348.778 35.44C351.423 31.0027 354.154 26.7787 356.97 22.768C359.871 18.7573 362.773 15.088 365.674 11.76C367.039 11.76 368.49 11.9307 370.026 12.272C371.647 12.6133 373.183 13.0827 374.634 13.68C376.17 14.192 377.535 14.832 378.73 15.6C380.01 16.368 381.034 17.136 381.802 17.904C375.402 24.4747 369.642 31.1307 364.522 37.872C359.402 44.528 355.349 50.8 352.362 56.688C350.741 59.9307 349.247 62.96 347.882 65.776C346.602 68.592 345.407 71.408 344.298 74.224C343.189 76.9547 342.165 79.728 341.226 82.544C340.373 85.2747 339.562 88.176 338.794 91.248C355.178 70.3413 367.338 59.888 375.274 59.888C377.493 59.888 379.882 60.6133 382.442 62.064C385.002 63.5147 387.263 65.4773 389.226 67.952C386.581 70.8533 383.85 74.352 381.034 78.448C378.218 82.544 375.615 86.6827 373.226 90.864C370.922 94.96 369.002 98.8 367.466 102.384C366.015 105.883 365.29 108.485 365.29 110.192C365.29 111.045 365.418 111.643 365.674 111.984C365.93 112.24 366.485 112.368 367.338 112.368C368.618 112.368 369.642 112.197 370.41 111.856C371.178 111.515 371.647 111.344 371.818 111.344C372.245 112.027 372.501 112.496 372.586 112.752C372.671 113.008 372.714 113.221 372.714 113.392C372.714 113.733 372.202 114.245 371.178 114.928C370.154 115.525 368.917 116.165 367.466 116.848C366.101 117.445 364.735 118 363.37 118.512C362.005 119.024 360.981 119.28 360.298 119.28C359.445 119.28 358.591 119.024 357.738 118.512C356.885 118.085 356.117 117.488 355.434 116.72C354.837 115.952 354.325 115.099 353.898 114.16C353.557 113.221 353.386 112.24 353.386 111.216C353.386 109.936 353.727 108.059 354.41 105.584C355.178 103.024 356.202 100.08 357.482 96.752C358.762 93.3387 360.298 89.6267 362.09 85.616C363.882 81.6053 365.802 77.5093 367.85 73.328C367.85 72.9867 367.679 72.816 367.338 72.816C367.082 72.816 366.399 73.1573 365.29 73.84C364.266 74.5227 363.285 75.2053 362.346 75.888C359.274 78.192 356.159 81.0507 353.002 84.464C349.93 87.792 346.901 91.4613 343.914 95.472C341.013 99.4827 338.239 103.749 335.594 108.272C333.034 112.709 330.815 117.189 328.938 121.712C328.682 122.309 328.298 122.864 327.786 123.376C327.274 123.888 326.847 124.144 326.506 124.144C326.25 124.144 325.866 123.845 325.354 123.248C324.927 122.651 324.501 121.883 324.074 120.944C323.733 120.091 323.391 119.195 323.05 118.256C322.709 117.317 322.538 116.507 322.538 115.824ZM503.259 31.728C503.515 33.1787 503.686 34.2027 503.771 34.8C503.942 35.312 504.027 36.0373 504.027 36.976C504.027 39.792 503.387 42.4373 502.107 44.912C500.912 47.3013 499.248 49.008 497.115 50.032C495.408 47.728 493.318 45.7653 490.843 44.144C488.368 42.4373 485.638 41.072 482.651 40.048C479.75 38.9387 476.72 38.128 473.563 37.616C470.406 37.104 467.334 36.848 464.347 36.848C461.36 36.848 458.544 37.104 455.899 37.616C453.339 38.0427 451.035 38.6827 448.987 39.536C447.024 40.304 445.446 41.2853 444.251 42.48C443.142 43.6747 442.587 45.04 442.587 46.576C442.843 48.4533 443.995 50.3733 446.043 52.336C448.091 54.2133 450.608 56.0907 453.595 57.968C456.582 59.76 459.867 61.552 463.451 63.344C467.12 65.136 470.704 66.8427 474.203 68.464C478.555 70.512 482.31 72.432 485.467 74.224C488.624 75.9307 491.227 77.8507 493.275 79.984C495.323 82.032 496.859 84.3787 497.883 87.024C498.907 89.6693 499.419 92.8693 499.419 96.624C499.419 100.976 498.694 105.072 497.243 108.912C495.792 112.667 493.659 115.952 490.843 118.768C488.112 121.584 484.784 123.76 480.859 125.296C476.934 126.917 472.539 127.728 467.675 127.728C462.896 127.728 457.734 127.003 452.187 125.552C446.64 124.101 441.435 122.096 436.571 119.536C431.792 117.061 427.782 114.203 424.539 110.96C421.382 107.632 419.803 104.133 419.803 100.464C419.803 98.7573 420.272 96.5813 421.211 93.936C422.235 91.2907 424.027 88.5173 426.587 85.616C426.843 88.176 428.208 91.2053 430.683 94.704C433.243 98.2027 437.04 101.445 442.075 104.432C446.768 107.163 451.59 109.168 456.539 110.448C461.574 111.643 466.267 112.24 470.619 112.24C475.398 112.24 479.28 111.643 482.267 110.448C485.254 109.253 487.6 107.845 489.307 106.224C491.014 104.517 492.208 102.811 492.891 101.104C493.574 99.3973 493.958 98.032 494.043 97.008C493.958 95.3013 493.147 93.68 491.611 92.144C490.16 90.5227 488.155 88.9867 485.595 87.536C483.12 86 480.219 84.464 476.891 82.928C473.563 81.392 470.107 79.856 466.523 78.32C461.147 75.9307 456.496 73.712 452.571 71.664C448.731 69.5307 445.531 67.3973 442.971 65.264C440.496 63.0453 438.662 60.7413 437.467 58.352C436.358 55.9627 435.803 53.232 435.803 50.16C435.803 45.3813 437.254 40.8587 440.155 36.592C443.056 32.3253 447.238 29.0827 452.699 26.864C455.43 25.6693 458.331 24.816 461.403 24.304C464.56 23.792 467.632 23.536 470.619 23.536C476.251 23.536 481.755 24.304 487.131 25.84C492.507 27.376 497.883 29.3387 503.259 31.728ZM554.99 65.008C554.649 70.2987 553.71 74.864 552.174 78.704C550.638 82.4587 548.419 85.7867 545.518 88.688C542.702 91.504 539.246 94.064 535.15 96.368C531.054 98.672 526.275 100.891 520.814 103.024C520.814 103.536 520.771 104.091 520.686 104.688C520.686 105.2 520.686 105.755 520.686 106.352C520.686 107.461 520.771 108.613 520.942 109.808C521.113 111.003 521.411 112.112 521.838 113.136C522.265 114.16 522.862 115.013 523.63 115.696C524.398 116.293 525.379 116.592 526.574 116.592C528.878 116.592 531.139 116.08 533.358 115.056C535.577 114.032 537.667 112.795 539.63 111.344C541.678 109.808 543.555 108.187 545.262 106.48C547.054 104.688 548.633 103.067 549.998 101.616C550.851 102.384 551.577 103.109 552.174 103.792C548.334 108.912 544.11 113.179 539.502 116.592C534.979 119.92 530.67 122.053 526.574 122.992C520.686 122.309 516.078 120.176 512.75 116.592C509.507 112.923 507.886 108.528 507.886 103.408C507.886 99.9093 508.355 96.368 509.294 92.784C510.318 89.1147 511.683 85.616 513.39 82.288C515.182 78.8747 517.23 75.6747 519.534 72.688C521.923 69.7013 524.441 67.0987 527.086 64.88C529.817 62.6613 532.59 60.912 535.406 59.632C538.307 58.352 541.166 57.712 543.982 57.712C547.907 58.224 551.577 60.656 554.99 65.008ZM546.158 69.232C543.854 69.5733 541.465 70.512 538.99 72.048C536.515 73.584 534.169 75.632 531.95 78.192C529.817 80.752 527.854 83.7387 526.062 87.152C524.27 90.5653 522.862 94.2347 521.838 98.16C528.665 94.7467 534.339 90.5653 538.862 85.616C543.385 80.5813 545.817 75.12 546.158 69.232ZM595.732 115.184C594.111 113.819 593.001 112.112 592.404 110.064C591.892 108.016 591.636 106.267 591.636 104.816C591.636 103.024 591.849 101.488 592.276 100.208C591.935 100.208 591.167 100.891 589.972 102.256C588.777 103.621 587.455 105.243 586.004 107.12C584.639 108.997 583.273 110.832 581.908 112.624C580.543 114.416 579.519 115.739 578.836 116.592C577.727 117.787 576.66 118.725 575.636 119.408C574.697 120.091 573.929 120.475 573.332 120.56C571.967 120.475 570.516 120.176 568.98 119.664C567.529 119.237 566.121 118.597 564.756 117.744C563.476 116.891 562.324 115.867 561.3 114.672C560.361 113.477 559.721 112.112 559.38 110.576C559.38 108.187 559.423 106.224 559.508 104.688C559.679 103.152 559.977 101.488 560.404 99.696C561.172 96.4533 562.281 92.784 563.732 88.688C565.268 84.592 567.017 80.5813 568.98 76.656C570.943 72.6453 573.119 68.9333 575.508 65.52C577.983 62.0213 580.585 59.2907 583.316 57.328C584.084 57.328 584.98 57.4133 586.004 57.584C587.028 57.6693 588.052 57.8827 589.076 58.224C590.185 58.5653 591.209 58.992 592.148 59.504C593.172 59.9307 594.025 60.528 594.708 61.296C593.94 62.1493 591.977 65.008 588.82 69.872C585.748 74.736 582.292 81.7333 578.452 90.864C578.025 91.8027 577.513 93.168 576.916 94.96C576.319 96.752 575.721 98.6293 575.124 100.592C574.527 102.555 574.015 104.475 573.588 106.352C573.247 108.229 573.076 109.723 573.076 110.832C573.076 111.515 573.161 112.027 573.332 112.368C573.588 112.709 573.801 112.965 573.972 113.136C575.252 112.624 576.873 111.216 578.836 108.912C580.799 106.608 583.529 103.067 587.028 98.288C587.881 97.0933 588.863 95.728 589.972 94.192C591.167 92.656 592.361 91.0347 593.556 89.328C594.751 87.536 595.86 85.7013 596.884 83.824C597.993 81.9467 598.889 80.0693 599.572 78.192C599.913 77.168 600.34 75.9733 600.852 74.608C601.449 73.1573 602.132 71.664 602.9 70.128C603.753 68.592 604.692 67.056 605.716 65.52C606.825 63.8987 608.105 62.4053 609.556 61.04C610.665 61.04 611.86 61.168 613.14 61.424C614.42 61.68 615.615 62.0213 616.724 62.448C617.919 62.7893 618.943 63.216 619.796 63.728C620.649 64.1547 621.289 64.624 621.716 65.136C620.18 68.8907 618.473 72.6027 616.596 76.272C614.719 79.9413 612.969 83.568 611.348 87.152C609.727 90.6507 608.361 94.1493 607.252 97.648C606.143 101.147 605.588 104.56 605.588 107.888C605.588 109.68 605.716 111.259 605.972 112.624C606.313 113.904 606.655 115.013 606.996 115.952C607.337 116.805 607.636 117.531 607.892 118.128C608.233 118.725 608.404 119.237 608.404 119.664C608.404 119.749 608.319 119.877 608.148 120.048C608.063 120.133 607.977 120.176 607.892 120.176C607.295 120.176 606.527 120.048 605.588 119.792C604.649 119.536 603.583 119.152 602.388 118.64C601.279 118.213 600.127 117.701 598.932 117.104C597.823 116.507 596.756 115.867 595.732 115.184ZM668.362 94.192C665.717 94.192 663.583 93.4667 661.962 92.016C660.426 90.48 659.658 88.3893 659.658 85.744C659.658 85.3173 659.743 84.6773 659.914 83.824C660.085 82.9707 660.255 82.3307 660.426 81.904C661.877 82.16 663.242 82.3307 664.522 82.416C665.802 82.416 667.466 82.416 669.514 82.416C673.866 82.416 677.919 82.288 681.674 82.032C685.514 81.776 688.97 81.4773 692.042 81.136C695.114 80.7947 697.759 80.496 699.978 80.24C702.197 79.984 703.903 79.856 705.098 79.856C706.719 79.856 708.127 80.8373 709.322 82.8C710.602 84.7627 711.541 87.5787 712.138 91.248C710.005 90.992 708.255 90.8213 706.89 90.736C705.525 90.6507 704.33 90.608 703.306 90.608C699.637 90.608 696.223 90.8213 693.066 91.248C689.909 91.5893 686.922 91.9733 684.106 92.4C681.29 92.8267 678.602 93.2533 676.042 93.68C673.482 94.0213 670.922 94.192 668.362 94.192ZM815.005 119.28C805.192 119.28 797.768 117.189 792.733 113.008C787.784 108.741 786.162 102.725 787.869 94.96L789.917 85.744C790.514 83.0987 790.13 81.0507 788.765 79.6C787.485 78.064 785.394 77.296 782.493 77.296C779.592 77.296 777.074 78.064 774.941 79.6C772.893 81.0507 771.57 83.0987 770.973 85.744L767.517 100.336L763.421 95.472H765.085C769.352 95.472 772.338 96.624 774.045 98.928C775.752 101.232 776.136 104.304 775.197 108.144C774.258 112.325 772.338 115.141 769.437 116.592C766.536 118.043 762.397 118.768 757.021 118.768C751.73 118.768 747.976 118.043 745.757 116.592C743.624 115.056 742.984 112.496 743.837 108.912L749.213 85.744C750.92 78.1493 754.802 72.3467 760.861 68.336C766.92 64.24 774.856 62.192 784.669 62.192C794.482 62.192 801.864 64.24 806.813 68.336C811.762 72.3467 813.384 78.1493 811.677 85.744L809.629 94.96C809.032 97.776 809.33 99.9947 810.525 101.616C811.72 103.152 813.768 103.92 816.669 103.92C819.57 103.92 822.045 103.152 824.093 101.616C826.141 99.9947 827.464 97.776 828.061 94.96L833.565 70.896C834.077 68.7627 834.077 67.1413 833.565 66.032C833.138 64.9227 832.328 64.112 831.133 63.6L833.565 52.976C834.589 48.4533 836.424 45.2533 839.069 43.376C841.714 41.4133 845.213 40.432 849.565 40.432H863.005L859.293 56.816H853.149C852.381 56.816 851.741 56.944 851.229 57.2C850.802 57.456 850.504 58.0107 850.333 58.864L849.949 60.656C852.424 61.68 854.088 62.8747 854.941 64.24C855.88 65.6053 856.008 67.7813 855.325 70.768L849.821 94.96C848.029 102.725 844.232 108.741 838.429 113.008C832.626 117.189 824.818 119.28 815.005 119.28ZM761.885 111.6C763.165 111.6 764.232 111.301 765.085 110.704C766.024 110.021 766.664 108.955 767.005 107.504C767.346 106.053 767.218 104.901 766.621 104.048C766.109 103.109 765.213 102.64 763.933 102.64L761.885 111.6ZM768.669 74.352L758.685 62.32L760.477 54.256C762.525 45.04 768.072 40.432 777.117 40.432H814.365L810.653 56.816H780.573C778.952 56.816 777.928 57.6693 777.501 59.376L777.245 60.656L783.517 67.824L768.669 74.352ZM815.744 151.024L821.888 124.4H841.6L835.456 151.024H815.744ZM823.01 32.24C817.207 32.24 813.111 30.96 810.722 28.4C808.333 25.7547 807.607 22.2133 808.546 17.776C809.57 13.3387 812.087 9.96799 816.098 7.66399C820.023 5.27466 825.101 4.07999 831.33 4.07999C834.829 4.07999 838.071 4.592 841.058 5.616C843.959 6.63999 846.519 7.91999 848.738 9.45599C850.957 10.9067 852.663 12.3573 853.858 13.808H854.37L856.93 2.8H871.01L864.226 32.24H823.01ZM830.434 23.664H849.122C848.439 22.7253 847.501 21.8293 846.306 20.976C845.111 20.0373 843.789 19.2267 842.338 18.544C840.802 17.8613 839.223 17.3067 837.602 16.88C835.981 16.4533 834.402 16.24 832.866 16.24C830.989 16.24 829.495 16.5813 828.386 17.264C827.191 17.9467 826.466 18.8853 826.21 20.08C825.954 21.1893 826.167 22.0853 826.85 22.768C827.533 23.3653 828.727 23.664 830.434 23.664ZM848.354 14.192L834.914 11.632L837.474 0.239998H851.554L848.354 14.192ZM1034.94 65.008C1036.22 59.5467 1034.34 56.816 1029.31 56.816H1015.87L1019.58 40.432H1040.7C1047.95 40.432 1052.94 42.2667 1055.68 45.936C1058.49 49.52 1059.05 54.9387 1057.34 62.192L1044.41 118H1022.65L1034.94 65.008ZM973.755 119.28C963.942 119.28 956.518 117.189 951.483 113.008C946.534 108.741 944.912 102.725 946.619 94.96L948.667 85.744C949.264 83.0987 948.88 81.0507 947.515 79.6C946.235 78.064 944.144 77.296 941.243 77.296C938.342 77.296 935.824 78.064 933.691 79.6C931.643 81.0507 930.32 83.0987 929.723 85.744L926.267 100.336L922.171 95.472H923.835C928.102 95.472 931.088 96.624 932.795 98.928C934.502 101.232 934.886 104.304 933.947 108.144C933.008 112.325 931.088 115.141 928.187 116.592C925.286 118.043 921.147 118.768 915.771 118.768C910.48 118.768 906.726 118.043 904.507 116.592C902.374 115.056 901.734 112.496 902.587 108.912L907.963 85.744C909.67 78.1493 913.552 72.3467 919.611 68.336C925.67 64.24 933.606 62.192 943.419 62.192C953.232 62.192 960.614 64.24 965.563 68.336C970.512 72.3467 972.134 78.1493 970.427 85.744L968.379 94.96C967.782 97.776 968.08 99.9947 969.275 101.616C970.47 103.152 972.518 103.92 975.419 103.92C978.32 103.92 980.795 103.152 982.843 101.616C984.891 99.9947 986.214 97.776 986.811 94.96L992.315 70.896C992.827 68.7627 992.827 67.1413 992.315 66.032C991.888 64.9227 991.078 64.112 989.883 63.6L992.315 52.976C993.339 48.4533 995.174 45.2533 997.819 43.376C1000.46 41.4133 1003.96 40.432 1008.32 40.432H1021.76L1018.04 56.816H1011.9C1011.13 56.816 1010.49 56.944 1009.98 57.2C1009.55 57.456 1009.25 58.0107 1009.08 58.864L1008.7 60.656C1011.17 61.68 1012.84 62.8747 1013.69 64.24C1014.63 65.6053 1014.76 67.7813 1014.08 70.768L1008.57 94.96C1006.78 102.725 1002.98 108.741 997.179 113.008C991.376 117.189 983.568 119.28 973.755 119.28ZM920.635 111.6C921.915 111.6 922.982 111.301 923.835 110.704C924.774 110.021 925.414 108.955 925.755 107.504C926.096 106.053 925.968 104.901 925.371 104.048C924.859 103.109 923.963 102.64 922.683 102.64L920.635 111.6ZM927.419 74.352L917.435 62.32L919.227 54.256C921.275 45.04 926.822 40.432 935.867 40.432H973.115L969.403 56.816H939.323C937.702 56.816 936.678 57.6693 936.251 59.376L935.995 60.656L942.267 67.824L927.419 74.352ZM1096.81 119.28C1090.24 119.28 1084.69 118.341 1080.17 116.464C1075.65 114.501 1072.4 111.728 1070.44 108.144C1068.48 104.56 1068.1 100.165 1069.29 94.96L1074.79 70.896C1075.31 68.7627 1075.31 67.1413 1074.79 66.032C1074.37 64.9227 1073.56 64.112 1072.36 63.6L1074.79 52.976C1075.82 48.4533 1077.65 45.2533 1080.3 43.376C1082.94 41.4133 1086.44 40.432 1090.79 40.432H1104.23L1100.52 56.816H1094.38C1093.61 56.816 1092.97 56.944 1092.46 57.2C1092.03 57.456 1091.73 58.0107 1091.56 58.864L1091.18 60.656C1093.65 61.68 1095.32 62.8747 1096.17 64.24C1097.11 65.6053 1097.24 67.7813 1096.55 70.768L1091.05 94.96C1090.45 97.776 1090.79 99.9947 1092.07 101.616C1093.44 103.152 1095.57 103.92 1098.47 103.92C1101.46 103.92 1104.02 103.152 1106.15 101.616C1108.29 99.9947 1109.65 97.776 1110.25 94.96L1115.75 70.896C1116.27 68.7627 1116.27 67.1413 1115.75 66.032C1115.33 64.9227 1114.52 64.112 1113.32 63.6L1115.75 52.976C1116.78 48.4533 1118.61 45.2533 1121.26 43.376C1123.9 41.4133 1127.4 40.432 1131.75 40.432H1145.19L1141.48 56.816H1135.34C1134.57 56.816 1133.93 56.944 1133.42 57.2C1132.99 57.456 1132.69 58.0107 1132.52 58.864L1132.14 60.656C1134.61 61.68 1136.28 62.8747 1137.13 64.24C1138.07 65.6053 1138.2 67.7813 1137.51 70.768L1132.01 94.96C1130.22 102.725 1126.38 108.741 1120.49 113.008C1114.6 117.189 1106.71 119.28 1096.81 119.28ZM1080.68 88.304L1084.01 74.224H1126.76L1123.43 88.304H1080.68ZM1103.76 32.24C1097.96 32.24 1093.86 30.96 1091.47 28.4C1089.08 25.7547 1088.36 22.2133 1089.3 17.776C1090.49 12.9973 1093.09 9.328 1097.1 6.768C1101.11 4.12266 1106.23 2.8 1112.46 2.8C1116.13 2.8 1119.33 3.31199 1122.06 4.33599C1124.79 5.27466 1127.1 6.59733 1128.98 8.30399C1130.85 9.92533 1132.3 11.76 1133.33 13.808H1133.84L1136.4 2.8H1151.76L1144.98 32.24H1103.76ZM1111.18 23.664H1129.87C1129.02 22.384 1127.7 21.1893 1125.9 20.08C1124.11 18.9707 1122.15 18.0747 1120.02 17.392C1117.8 16.624 1115.66 16.24 1113.62 16.24C1111.48 16.24 1109.9 16.5813 1108.88 17.264C1107.86 17.9467 1107.22 18.8853 1106.96 20.08C1106.7 21.1893 1106.92 22.0853 1107.6 22.768C1108.28 23.3653 1109.48 23.664 1111.18 23.664ZM1194.42 87.792C1195.11 84.976 1194.72 82.8 1193.27 81.264C1191.91 79.6427 1189.73 78.832 1186.74 78.832C1183.84 78.832 1181.28 79.6427 1179.06 81.264C1176.84 82.8 1175.39 84.976 1174.71 87.792L1171.77 100.336L1167.67 95.472H1169.34C1173.6 95.472 1176.59 96.624 1178.3 98.928C1180 101.232 1180.39 104.304 1179.45 108.144C1178.51 112.325 1176.59 115.141 1173.69 116.592C1170.79 118.043 1166.65 118.768 1161.27 118.768C1155.98 118.768 1152.23 118.043 1150.01 116.592C1147.87 115.056 1147.23 112.496 1148.09 108.912L1152.95 87.792C1154.74 80.0267 1158.63 74.0533 1164.6 69.872C1170.66 65.6053 1178.59 63.472 1188.41 63.472C1194.98 63.472 1200.52 64.4533 1205.05 66.416C1209.66 68.2933 1212.94 71.024 1214.9 74.608C1216.95 78.192 1217.38 82.5867 1216.18 87.792L1209.27 118H1187.51L1194.42 87.792ZM1166.14 111.6C1167.42 111.6 1168.48 111.301 1169.34 110.704C1170.27 110.021 1170.91 108.955 1171.26 107.504C1171.6 106.053 1171.47 104.901 1170.87 104.048C1170.36 103.109 1169.46 102.64 1168.18 102.64L1166.14 111.6ZM1159.74 56.816L1163.45 40.432H1227.7L1223.99 56.816H1159.74Z" fill="#27CFFC"/>
</svg>
