<svg width="622" height="117" viewBox="0 0 622 117" fill="none" xmlns="http://www.w3.org/2000/svg">
<path d="M84.384 20.728C84.64 22.1787 84.8107 23.2027 84.896 23.8C85.0667 24.312 85.152 25.0373 85.152 25.976C85.152 28.792 84.512 31.4373 83.232 33.912C82.0373 36.3013 80.3733 38.008 78.24 39.032C76.5333 36.728 74.4427 34.7653 71.968 33.144C69.4933 31.4373 66.7627 30.072 63.776 29.048C60.8747 27.9387 57.8453 27.128 54.688 26.616C51.5307 26.104 48.4587 25.848 45.472 25.848C42.4853 25.848 39.6693 26.104 37.024 26.616C34.464 27.0427 32.16 27.6827 30.112 28.536C28.1493 29.304 26.5707 30.2853 25.376 31.48C24.2667 32.6747 23.712 34.04 23.712 35.576C23.968 37.4533 25.12 39.3733 27.168 41.336C29.216 43.2133 31.7333 45.0907 34.72 46.968C37.7067 48.76 40.992 50.552 44.576 52.344C48.2453 54.136 51.8293 55.8427 55.328 57.464C59.68 59.512 63.4347 61.432 66.592 63.224C69.7493 64.9307 72.352 66.8507 74.4 68.984C76.448 71.032 77.984 73.3787 79.008 76.024C80.032 78.6693 80.544 81.8693 80.544 85.624C80.544 89.976 79.8187 94.072 78.368 97.912C76.9173 101.667 74.784 104.952 71.968 107.768C69.2373 110.584 65.9093 112.76 61.984 114.296C58.0587 115.917 53.664 116.728 48.8 116.728C44.0213 116.728 38.8587 116.003 33.312 114.552C27.7653 113.101 22.56 111.096 17.696 108.536C12.9173 106.061 8.90667 103.203 5.664 99.96C2.50667 96.632 0.928 93.1333 0.928 89.464C0.928 87.7573 1.39733 85.5813 2.336 82.936C3.36 80.2907 5.152 77.5173 7.712 74.616C7.968 77.176 9.33333 80.2053 11.808 83.704C14.368 87.2027 18.1653 90.4453 23.2 93.432C27.8933 96.1627 32.7147 98.168 37.664 99.448C42.6987 100.643 47.392 101.24 51.744 101.24C56.5227 101.24 60.4053 100.643 63.392 99.448C66.3787 98.2533 68.7253 96.8453 70.432 95.224C72.1387 93.5173 73.3333 91.8107 74.016 90.104C74.6987 88.3973 75.0827 87.032 75.168 86.008C75.0827 84.3013 74.272 82.68 72.736 81.144C71.2853 79.5227 69.28 77.9867 66.72 76.536C64.2453 75 61.344 73.464 58.016 71.928C54.688 70.392 51.232 68.856 47.648 67.32C42.272 64.9307 37.6213 62.712 33.696 60.664C29.856 58.5307 26.656 56.3973 24.096 54.264C21.6213 52.0453 19.7867 49.7413 18.592 47.352C17.4827 44.9627 16.928 42.232 16.928 39.16C16.928 34.3813 18.3787 29.8587 21.28 25.592C24.1813 21.3253 28.3627 18.0827 33.824 15.864C36.5547 14.6693 39.456 13.816 42.528 13.304C45.6853 12.792 48.7573 12.536 51.744 12.536C57.376 12.536 62.88 13.304 68.256 14.84C73.632 16.376 79.008 18.3387 84.384 20.728ZM134.451 55.288C135.304 55.288 136.286 55.4587 137.395 55.8C138.59 56.056 139.656 56.44 140.595 56.952C141.534 57.3787 142.302 57.848 142.899 58.36C143.582 58.872 143.923 59.3413 143.923 59.768C142.216 63.352 140.638 66.9787 139.187 70.648C137.736 74.232 136.499 77.688 135.475 81.016C134.451 84.344 133.64 87.4587 133.043 90.36C132.531 93.2613 132.275 95.7787 132.275 97.912C132.275 100.301 132.531 102.307 133.043 103.928C133.555 105.464 134.408 106.573 135.603 107.256C134.579 107.939 133.256 108.493 131.635 108.92C130.014 109.347 128.563 109.56 127.283 109.56C122.675 109.56 120.371 106.403 120.371 100.088C120.371 95.224 121.992 88.568 125.235 80.12C123.528 84.0453 121.566 87.7573 119.347 91.256C117.128 94.6693 114.867 97.6987 112.563 100.344C110.259 102.989 107.912 105.165 105.523 106.872C103.219 108.493 101.086 109.475 99.123 109.816C95.9657 109.645 93.4057 108.152 91.443 105.336C89.4803 102.435 88.499 98.7653 88.499 94.328C88.499 89.5493 89.523 84.5147 91.571 79.224C93.619 73.9333 96.2217 69.0267 99.379 64.504C102.622 59.9813 106.12 56.2267 109.875 53.24C113.63 50.168 117.256 48.5467 120.755 48.376C121.608 48.632 122.547 49.144 123.571 49.912C124.68 50.68 125.704 51.576 126.643 52.6C127.667 53.624 128.52 54.6907 129.203 55.8C129.886 56.824 130.27 57.72 130.355 58.488C126.942 59 123.4 60.664 119.731 63.48C116.147 66.296 112.862 69.7093 109.875 73.72C106.974 77.6453 104.584 81.8693 102.707 86.392C100.83 90.9147 99.891 95.1387 99.891 99.064C99.891 100.685 100.488 101.709 101.683 102.136C104.158 101.624 107.016 99.5333 110.259 95.864C113.502 92.1093 117.427 86.3493 122.035 78.584C122.888 77.048 123.827 75.3413 124.851 73.464C125.96 71.5867 127.07 69.624 128.179 67.576C129.288 65.528 130.355 63.48 131.379 61.432C132.488 59.2987 133.512 57.2507 134.451 55.288ZM224.4 67.704C223.035 67.7893 221.371 68.6853 219.408 70.392C217.445 72.0133 215.312 74.1467 213.008 76.792C210.789 79.352 208.443 82.2107 205.968 85.368C203.579 88.5253 201.232 91.6827 198.928 94.84C196.709 97.912 194.619 100.813 192.656 103.544C190.693 106.275 189.029 108.451 187.664 110.072C185.787 109.304 184.165 108.195 182.8 106.744C181.435 105.208 180.453 103.331 179.856 101.112C180.283 98.4667 180.88 95.736 181.648 92.92C182.416 90.0187 183.397 87.032 184.592 83.96C185.872 80.888 187.408 77.688 189.2 74.36C191.077 70.9467 193.339 67.3627 195.984 63.608C194.704 63.6933 192.955 64.632 190.736 66.424C188.517 68.1307 186.128 70.392 183.568 73.208C181.008 75.9387 178.363 79.0533 175.632 82.552C172.901 85.9653 170.341 89.336 167.952 92.664C164.795 97.1013 162.149 100.984 160.016 104.312C157.968 107.64 156.475 109.603 155.536 110.2C153.317 108.579 151.781 106.829 150.928 104.952C150.075 103.075 149.435 100.984 149.008 98.68C149.093 96.632 149.392 94.072 149.904 91C150.501 87.928 151.312 84.7707 152.336 81.528C154.299 75.2987 156.816 69.112 159.888 62.968C163.045 56.824 166.075 51.192 168.976 46.072C171.365 46.584 173.499 47.3947 175.376 48.504C177.339 49.6133 179.387 51.2347 181.52 53.368C180.667 56.0133 179.344 58.8293 177.552 61.816C175.76 64.7173 173.883 67.7893 171.92 71.032C169.957 74.2747 168.165 77.6027 166.544 81.016C164.923 84.4293 163.856 87.8853 163.344 91.384C165.733 87.9707 168.549 84.0453 171.792 79.608C175.12 75.1707 178.491 70.9893 181.904 67.064C185.403 63.1387 188.859 59.8107 192.272 57.08C195.685 54.3493 198.757 52.984 201.488 52.984C202.512 52.984 203.621 53.1547 204.816 53.496C206.011 53.8373 207.12 54.264 208.144 54.776C209.168 55.288 210.021 55.8 210.704 56.312C211.387 56.7387 211.771 57.08 211.856 57.336C211.429 59.0427 210.405 61.3893 208.784 64.376C207.248 67.2773 205.584 70.3493 203.792 73.592C202 76.8347 200.336 79.992 198.8 83.064C197.264 86.0507 196.368 88.44 196.112 90.232C200.293 84.5147 204.219 79.352 207.888 74.744C211.557 70.0507 215.013 66.04 218.256 62.712C221.499 59.384 224.485 56.824 227.216 55.032C230.032 53.24 232.677 52.344 235.152 52.344C236.859 52.344 238.437 52.8133 239.888 53.752C241.424 54.6053 242.491 55.8853 243.088 57.592C242.32 60.152 241.04 63.224 239.248 66.808C237.541 70.392 235.792 74.1893 234 78.2C232.208 82.1253 230.587 86.008 229.136 89.848C227.771 93.688 227.088 97.144 227.088 100.216C227.088 102.008 227.344 103.203 227.856 103.8C228.368 104.312 229.093 104.568 230.032 104.568C231.056 104.568 231.995 104.397 232.848 104.056C233.787 103.629 234.469 103.416 234.896 103.416C235.408 103.757 235.707 104.184 235.792 104.696C235.877 105.208 235.92 105.677 235.92 106.104C234.213 107.469 232.464 108.579 230.672 109.432C228.88 110.371 226.875 110.84 224.656 110.84C222.608 110.84 220.901 110.499 219.536 109.816C218.256 109.133 217.189 108.195 216.336 107C215.483 105.805 214.885 104.44 214.544 102.904C214.203 101.368 214.032 99.704 214.032 97.912C214.032 95.0107 214.416 92.152 215.184 89.336C215.952 86.4347 216.848 83.704 217.872 81.144C218.981 78.4987 220.133 76.0667 221.328 73.848C222.523 71.544 223.547 69.496 224.4 67.704ZM248.419 98.424C248.419 97.656 248.462 96.7173 248.547 95.608C248.718 94.4133 248.974 92.8773 249.315 91C249.656 89.0373 250.083 86.6907 250.595 83.96C251.192 81.2293 251.918 77.944 252.771 74.104C252.942 73.2507 253.326 71.8853 253.923 70.008C254.52 68.1307 255.288 66.168 256.227 64.12C257.251 61.9867 258.446 59.9387 259.811 57.976C261.262 56.0133 262.968 54.5627 264.931 53.624C266.382 53.9653 268.302 54.8613 270.691 56.312C273.08 57.6773 275.128 59.5973 276.835 62.072C274.872 64.2907 273.208 66.5093 271.843 68.728C270.563 70.9467 269.368 73.2507 268.259 75.64C267.235 78.0293 266.254 80.504 265.315 83.064C264.462 85.624 263.48 88.312 262.371 91.128C261.432 93.5173 260.579 95.992 259.811 98.552C259.043 101.027 258.616 103.203 258.531 105.08C258.531 106.616 258.488 107.683 258.403 108.28C258.403 108.963 258.19 109.304 257.763 109.304C257.422 109.304 256.739 109.091 255.715 108.664C254.691 108.237 253.624 107.597 252.515 106.744C251.491 105.805 250.552 104.653 249.699 103.288C248.846 101.923 248.419 100.301 248.419 98.424ZM272.867 42.872C272.867 42.36 272.995 41.592 273.251 40.568C272.824 40.1413 272.44 39.5013 272.099 38.648C271.843 37.7947 271.715 37.0267 271.715 36.344C271.715 35.576 271.8 34.552 271.971 33.272C272.227 31.9067 272.526 30.456 272.867 28.92C273.208 27.384 273.635 25.8053 274.147 24.184C274.659 22.4773 275.171 20.9413 275.683 19.576C276.707 19.576 277.944 19.8747 279.395 20.472C280.931 20.984 282.467 21.7093 284.003 22.648C285.539 23.5013 286.947 24.4827 288.227 25.592C289.507 26.616 290.488 27.5973 291.171 28.536C290.232 29.4747 288.995 30.7973 287.459 32.504C285.923 34.1253 284.43 35.8747 282.979 37.752C281.528 39.544 280.206 41.2507 279.011 42.872C277.816 44.4933 277.048 45.6453 276.707 46.328C275.683 46.1573 274.787 45.7307 274.019 45.048C273.251 44.28 272.867 43.5547 272.867 42.872ZM285.218 57.976C284.791 57.464 284.407 56.3973 284.066 54.776C283.725 53.0693 283.554 51.6187 283.554 50.424C285.773 50.5947 287.906 50.7653 289.954 50.936C292.002 51.0213 293.879 51.1067 295.586 51.192C296.866 48.632 298.231 46.1147 299.682 43.64C301.218 41.08 302.669 38.776 304.034 36.728C305.485 34.5947 306.807 32.8027 308.002 31.352C309.282 29.9013 310.263 28.9627 310.946 28.536C311.799 28.536 312.866 28.7067 314.146 29.048C315.511 29.304 316.877 29.688 318.242 30.2C319.607 30.6267 320.845 31.096 321.954 31.608C323.063 32.12 323.831 32.632 324.258 33.144C321.698 36.3867 319.479 39.416 317.602 42.232C315.81 44.9627 313.847 48.12 311.714 51.704C313.421 51.704 315.127 51.6613 316.834 51.576C318.626 51.4907 320.418 51.3627 322.21 51.192C322.637 51.6187 322.978 52.1733 323.234 52.856C323.49 53.4533 323.618 54.0933 323.618 54.776C319.437 56.312 314.359 57.1653 308.386 57.336C306.253 61.432 304.333 65.528 302.626 69.624C301.005 73.6347 299.597 77.5173 298.402 81.272C297.293 85.0267 296.397 88.568 295.714 91.896C295.117 95.224 294.818 98.2107 294.818 100.856C294.818 104.611 296.226 106.701 299.042 107.128C301.602 106.787 304.034 106.147 306.338 105.208C308.642 104.269 310.69 103.075 312.482 101.624C312.994 102.392 313.293 103.032 313.378 103.544C312.866 104.312 311.97 105.208 310.69 106.232C309.495 107.256 308.173 108.237 306.722 109.176C305.271 110.2 303.863 111.053 302.498 111.736C301.133 112.419 300.109 112.803 299.426 112.888C297.293 112.803 295.159 112.333 293.026 111.48C290.893 110.627 288.93 109.56 287.138 108.28C285.431 107 284.023 105.592 282.914 104.056C281.805 102.435 281.25 100.856 281.25 99.32C281.25 97.272 281.506 94.712 282.018 91.64C282.615 88.4827 283.426 85.0693 284.45 81.4C285.474 77.7307 286.669 73.8907 288.034 69.88C289.399 65.8693 290.893 61.9013 292.514 57.976H285.218ZM322.538 104.824C322.538 101.837 322.837 98.3387 323.434 94.328C324.031 90.232 324.885 85.88 325.994 81.272C327.189 76.664 328.554 71.8427 330.09 66.808C331.711 61.7733 333.503 56.7387 335.466 51.704C337.173 47.1813 339.135 42.616 341.354 38.008C343.658 33.4 346.133 28.8773 348.778 24.44C351.423 20.0027 354.154 15.7787 356.97 11.768C359.871 7.75733 362.773 4.088 365.674 0.759995C367.039 0.759995 368.49 0.930662 370.026 1.272C371.647 1.61333 373.183 2.08266 374.634 2.67999C376.17 3.192 377.535 3.832 378.73 4.6C380.01 5.368 381.034 6.136 381.802 6.90399C375.402 13.4747 369.642 20.1307 364.522 26.872C359.402 33.528 355.349 39.8 352.362 45.688C350.741 48.9307 349.247 51.96 347.882 54.776C346.602 57.592 345.407 60.408 344.298 63.224C343.189 65.9547 342.165 68.728 341.226 71.544C340.373 74.2747 339.562 77.176 338.794 80.248C355.178 59.3413 367.338 48.888 375.274 48.888C377.493 48.888 379.882 49.6133 382.442 51.064C385.002 52.5147 387.263 54.4773 389.226 56.952C386.581 59.8533 383.85 63.352 381.034 67.448C378.218 71.544 375.615 75.6827 373.226 79.864C370.922 83.96 369.002 87.8 367.466 91.384C366.015 94.8827 365.29 97.4853 365.29 99.192C365.29 100.045 365.418 100.643 365.674 100.984C365.93 101.24 366.485 101.368 367.338 101.368C368.618 101.368 369.642 101.197 370.41 100.856C371.178 100.515 371.647 100.344 371.818 100.344C372.245 101.027 372.501 101.496 372.586 101.752C372.671 102.008 372.714 102.221 372.714 102.392C372.714 102.733 372.202 103.245 371.178 103.928C370.154 104.525 368.917 105.165 367.466 105.848C366.101 106.445 364.735 107 363.37 107.512C362.005 108.024 360.981 108.28 360.298 108.28C359.445 108.28 358.591 108.024 357.738 107.512C356.885 107.085 356.117 106.488 355.434 105.72C354.837 104.952 354.325 104.099 353.898 103.16C353.557 102.221 353.386 101.24 353.386 100.216C353.386 98.936 353.727 97.0587 354.41 94.584C355.178 92.024 356.202 89.08 357.482 85.752C358.762 82.3387 360.298 78.6267 362.09 74.616C363.882 70.6053 365.802 66.5093 367.85 62.328C367.85 61.9867 367.679 61.816 367.338 61.816C367.082 61.816 366.399 62.1573 365.29 62.84C364.266 63.5227 363.285 64.2053 362.346 64.888C359.274 67.192 356.159 70.0507 353.002 73.464C349.93 76.792 346.901 80.4613 343.914 84.472C341.013 88.4827 338.239 92.7493 335.594 97.272C333.034 101.709 330.815 106.189 328.938 110.712C328.682 111.309 328.298 111.864 327.786 112.376C327.274 112.888 326.847 113.144 326.506 113.144C326.25 113.144 325.866 112.845 325.354 112.248C324.927 111.651 324.501 110.883 324.074 109.944C323.733 109.091 323.391 108.195 323.05 107.256C322.709 106.317 322.538 105.507 322.538 104.824ZM503.259 20.728C503.515 22.1787 503.686 23.2027 503.771 23.8C503.942 24.312 504.027 25.0373 504.027 25.976C504.027 28.792 503.387 31.4373 502.107 33.912C500.912 36.3013 499.248 38.008 497.115 39.032C495.408 36.728 493.318 34.7653 490.843 33.144C488.368 31.4373 485.638 30.072 482.651 29.048C479.75 27.9387 476.72 27.128 473.563 26.616C470.406 26.104 467.334 25.848 464.347 25.848C461.36 25.848 458.544 26.104 455.899 26.616C453.339 27.0427 451.035 27.6827 448.987 28.536C447.024 29.304 445.446 30.2853 444.251 31.48C443.142 32.6747 442.587 34.04 442.587 35.576C442.843 37.4533 443.995 39.3733 446.043 41.336C448.091 43.2133 450.608 45.0907 453.595 46.968C456.582 48.76 459.867 50.552 463.451 52.344C467.12 54.136 470.704 55.8427 474.203 57.464C478.555 59.512 482.31 61.432 485.467 63.224C488.624 64.9307 491.227 66.8507 493.275 68.984C495.323 71.032 496.859 73.3787 497.883 76.024C498.907 78.6693 499.419 81.8693 499.419 85.624C499.419 89.976 498.694 94.072 497.243 97.912C495.792 101.667 493.659 104.952 490.843 107.768C488.112 110.584 484.784 112.76 480.859 114.296C476.934 115.917 472.539 116.728 467.675 116.728C462.896 116.728 457.734 116.003 452.187 114.552C446.64 113.101 441.435 111.096 436.571 108.536C431.792 106.061 427.782 103.203 424.539 99.96C421.382 96.632 419.803 93.1333 419.803 89.464C419.803 87.7573 420.272 85.5813 421.211 82.936C422.235 80.2907 424.027 77.5173 426.587 74.616C426.843 77.176 428.208 80.2053 430.683 83.704C433.243 87.2027 437.04 90.4453 442.075 93.432C446.768 96.1627 451.59 98.168 456.539 99.448C461.574 100.643 466.267 101.24 470.619 101.24C475.398 101.24 479.28 100.643 482.267 99.448C485.254 98.2533 487.6 96.8453 489.307 95.224C491.014 93.5173 492.208 91.8107 492.891 90.104C493.574 88.3973 493.958 87.032 494.043 86.008C493.958 84.3013 493.147 82.68 491.611 81.144C490.16 79.5227 488.155 77.9867 485.595 76.536C483.12 75 480.219 73.464 476.891 71.928C473.563 70.392 470.107 68.856 466.523 67.32C461.147 64.9307 456.496 62.712 452.571 60.664C448.731 58.5307 445.531 56.3973 442.971 54.264C440.496 52.0453 438.662 49.7413 437.467 47.352C436.358 44.9627 435.803 42.232 435.803 39.16C435.803 34.3813 437.254 29.8587 440.155 25.592C443.056 21.3253 447.238 18.0827 452.699 15.864C455.43 14.6693 458.331 13.816 461.403 13.304C464.56 12.792 467.632 12.536 470.619 12.536C476.251 12.536 481.755 13.304 487.131 14.84C492.507 16.376 497.883 18.3387 503.259 20.728ZM554.99 54.008C554.649 59.2987 553.71 63.864 552.174 67.704C550.638 71.4587 548.419 74.7867 545.518 77.688C542.702 80.504 539.246 83.064 535.15 85.368C531.054 87.672 526.275 89.8907 520.814 92.024C520.814 92.536 520.771 93.0907 520.686 93.688C520.686 94.2 520.686 94.7547 520.686 95.352C520.686 96.4613 520.771 97.6133 520.942 98.808C521.113 100.003 521.411 101.112 521.838 102.136C522.265 103.16 522.862 104.013 523.63 104.696C524.398 105.293 525.379 105.592 526.574 105.592C528.878 105.592 531.139 105.08 533.358 104.056C535.577 103.032 537.667 101.795 539.63 100.344C541.678 98.808 543.555 97.1867 545.262 95.48C547.054 93.688 548.633 92.0667 549.998 90.616C550.851 91.384 551.577 92.1093 552.174 92.792C548.334 97.912 544.11 102.179 539.502 105.592C534.979 108.92 530.67 111.053 526.574 111.992C520.686 111.309 516.078 109.176 512.75 105.592C509.507 101.923 507.886 97.528 507.886 92.408C507.886 88.9093 508.355 85.368 509.294 81.784C510.318 78.1147 511.683 74.616 513.39 71.288C515.182 67.8747 517.23 64.6747 519.534 61.688C521.923 58.7013 524.441 56.0987 527.086 53.88C529.817 51.6613 532.59 49.912 535.406 48.632C538.307 47.352 541.166 46.712 543.982 46.712C547.907 47.224 551.577 49.656 554.99 54.008ZM546.158 58.232C543.854 58.5733 541.465 59.512 538.99 61.048C536.515 62.584 534.169 64.632 531.95 67.192C529.817 69.752 527.854 72.7387 526.062 76.152C524.27 79.5653 522.862 83.2347 521.838 87.16C528.665 83.7467 534.339 79.5653 538.862 74.616C543.385 69.5813 545.817 64.12 546.158 58.232ZM595.732 104.184C594.111 102.819 593.001 101.112 592.404 99.064C591.892 97.016 591.636 95.2667 591.636 93.816C591.636 92.024 591.849 90.488 592.276 89.208C591.935 89.208 591.167 89.8907 589.972 91.256C588.777 92.6213 587.455 94.2427 586.004 96.12C584.639 97.9973 583.273 99.832 581.908 101.624C580.543 103.416 579.519 104.739 578.836 105.592C577.727 106.787 576.66 107.725 575.636 108.408C574.697 109.091 573.929 109.475 573.332 109.56C571.967 109.475 570.516 109.176 568.98 108.664C567.529 108.237 566.121 107.597 564.756 106.744C563.476 105.891 562.324 104.867 561.3 103.672C560.361 102.477 559.721 101.112 559.38 99.576C559.38 97.1867 559.423 95.224 559.508 93.688C559.679 92.152 559.977 90.488 560.404 88.696C561.172 85.4533 562.281 81.784 563.732 77.688C565.268 73.592 567.017 69.5813 568.98 65.656C570.943 61.6453 573.119 57.9333 575.508 54.52C577.983 51.0213 580.585 48.2907 583.316 46.328C584.084 46.328 584.98 46.4133 586.004 46.584C587.028 46.6693 588.052 46.8827 589.076 47.224C590.185 47.5653 591.209 47.992 592.148 48.504C593.172 48.9307 594.025 49.528 594.708 50.296C593.94 51.1493 591.977 54.008 588.82 58.872C585.748 63.736 582.292 70.7333 578.452 79.864C578.025 80.8027 577.513 82.168 576.916 83.96C576.319 85.752 575.721 87.6293 575.124 89.592C574.527 91.5547 574.015 93.4747 573.588 95.352C573.247 97.2293 573.076 98.7227 573.076 99.832C573.076 100.515 573.161 101.027 573.332 101.368C573.588 101.709 573.801 101.965 573.972 102.136C575.252 101.624 576.873 100.216 578.836 97.912C580.799 95.608 583.529 92.0667 587.028 87.288C587.881 86.0933 588.863 84.728 589.972 83.192C591.167 81.656 592.361 80.0347 593.556 78.328C594.751 76.536 595.86 74.7013 596.884 72.824C597.993 70.9467 598.889 69.0693 599.572 67.192C599.913 66.168 600.34 64.9733 600.852 63.608C601.449 62.1573 602.132 60.664 602.9 59.128C603.753 57.592 604.692 56.056 605.716 54.52C606.825 52.8987 608.105 51.4053 609.556 50.04C610.665 50.04 611.86 50.168 613.14 50.424C614.42 50.68 615.615 51.0213 616.724 51.448C617.919 51.7893 618.943 52.216 619.796 52.728C620.649 53.1547 621.289 53.624 621.716 54.136C620.18 57.8907 618.473 61.6027 616.596 65.272C614.719 68.9413 612.969 72.568 611.348 76.152C609.727 79.6507 608.361 83.1493 607.252 86.648C606.143 90.1467 605.588 93.56 605.588 96.888C605.588 98.68 605.716 100.259 605.972 101.624C606.313 102.904 606.655 104.013 606.996 104.952C607.337 105.805 607.636 106.531 607.892 107.128C608.233 107.725 608.404 108.237 608.404 108.664C608.404 108.749 608.319 108.877 608.148 109.048C608.063 109.133 607.977 109.176 607.892 109.176C607.295 109.176 606.527 109.048 605.588 108.792C604.649 108.536 603.583 108.152 602.388 107.64C601.279 107.213 600.127 106.701 598.932 106.104C597.823 105.507 596.756 104.867 595.732 104.184Z" fill="#27CFFC"/>
</svg>
