<svg version="1.2" xmlns="http://www.w3.org/2000/svg" viewBox="0 0 1909 2986" width="1909" height="2986"><style>.a{fill:#fff;stroke:#000;stroke-miterlimit:100;stroke-width:4}</style><path fill-rule="evenodd" class="a" d="m1550.8 2435.3c-4 0.3-7.5 0.7-11 0.7-30-0.2-60-0.1-90-0.9-22-0.6-43.9-2.4-65.9-3.7-14-0.9-27.9-1.7-41.8-3-15.9-1.5-31.8-3.3-47.7-5.3-17.4-2-34.9-4-52.3-6.8-22.1-3.4-44.5-4.8-66.8-6.3-17.1-1.1-34.4-0.1-51.6-0.6-50.7-1.6-96 14.1-137.6 42.1-9.3 6.2-18.1 13.1-27.1 19.8-3.8 2.8-7.6 5.8-11.7 9-2.3-1.6-4.4-2.7-6-4.3q-7.5-8-16-15-8.4-6.9-17.7-12.9-9.2-5.9-19.1-10.7-9.8-4.7-20.2-8.3c-3.4-1.1-6.8-2.4-10.1-3.8-22-9.7-45-13.8-68.9-13.6-6 0-11.9-0.8-17.9-1.3-3.6-0.3-7.2-0.7-10.7-0.9-28.4-1-56.8-1.5-85.2 0-12 0.6-23.9 2-35.8 3.2-12.8 1.2-25.5 2.6-38.2 4-11.9 1.2-23.8 2.6-35.7 3.7-9.2 0.9-18.4 1.5-27.5 2.5-23.9 2.4-47.7 5.3-71.6 7.4-16.3 1.5-32.6 2.3-49 3.1-22.8 1-45.6 1.8-68.3 2.5-4.4 0.1-8.9 0.8-13.6-1.6-0.6-1.8-1.6-4-1.8-6.3-0.4-4-0.3-8-0.3-12q-0.2-298.8-0.4-597.6c0-5.9-0.8-12 1.5-18.3 2.3-0.5 4.6-1.4 6.8-1.4 4.6-0.1 8.7-0.9 12.2-4.2 2.4-2.3 5.5-2.9 8.8-3.2 10.8-0.7 21.5-1.3 32.3-2.4 15.5-1.6 31-3.2 46.4-5.4q35.6-5.1 71.1-11c34.3-5.8 68.5-12 102.8-17.8 13.7-2.4 27.6-4.6 41.4-6.4 7-0.9 12.1-3.4 15.2-10 2.2-4.7 5.2-9 7.4-13.7 4.8-10.3 11.8-19 19.5-27.2 20-21.5 43.1-39.3 67.6-55.4 1.8-1.2 4.1-1.9 7.2-3.3q0.1 0.8 0.2 1.6 0.2 0.8 0.2 1.6 0.1 0.8 0.2 1.6 0.1 0.8 0.1 1.6c-0.3 10-0.8 20-1.1 30q-0.1 1.2 0 2.4 0 1.2 0.1 2.4 0.1 1.2 0.3 2.4 0.1 1.2 0.3 2.3c0.3 1.3 1.8 2.4 2.7 3.6 1-1 2.7-2 2.9-3.2 0.6-3.1 0.5-6.4 0.9-9.5 2.7-24 7.5-47.4 20.4-68.4 5-8.3 10.2-16.2 17.5-22.7 33.5-29.7 69.8-54.8 111.6-71.4 3-1.2 6-2.2 9-3.2q0.3 0 0.6-0.1 0.3 0 0.6 0 0.3 0.1 0.6 0.1 0.3 0 0.6 0.1c2.2 2.2 0.6 4.4-0.3 6.5-3.4 8.5-6.9 17-10.1 25.6-0.7 2-0.4 4.5-0.7 8.6 2.5-2.1 4-2.8 4.7-4 1.7-3.1 3.1-6.4 4.6-9.7q1.8-3.8 3.8-7.5 2.1-3.6 4.4-7.1 2.4-3.5 5-6.8 2.6-3.3 5.4-6.4 2.4-2.7 5.1-5.1 2.8-2.3 5.8-4.3 3-2 6.2-3.5 3.3-1.6 6.7-2.7c12.9-4.2 25.7-8.8 38.6-13q1.4-0.4 2.7-0.8 1.4-0.3 2.7-0.6 1.4-0.3 2.8-0.6 1.4-0.3 2.7-0.5c2.5 2.6 1.2 4.3 0.3 6-5.4 10.3-10.9 20.5-16 30.8-1.6 3.2-2.5 6.8-3.5 10.2q0 0.3 0.1 0.6 0 0.3 0.1 0.5 0.1 0.3 0.3 0.5 0.2 0.2 0.4 0.4c1 0.4 2.7 0.7 3.2 0.2q1-0.9 2-1.8 0.9-1 1.8-2 0.9-1 1.8-2 0.8-1.1 1.6-2.2 2.6-4.1 5.5-8.2 2.9-4 6-7.9 3.1-3.9 6.3-7.6 3.3-3.7 6.8-7.3c7-7.1 14.2-14 21.5-20.8q2-1.8 4.2-3.4 2.2-1.6 4.6-2.8 2.4-1.3 4.9-2.2 2.6-0.9 5.2-1.5 19.3-4.4 38.6-8.6c28.4-6.2 57.2-5.7 86-5.4q0.5 0.1 1.1 0.2 0.5 0.1 1.1 0.2 0.5 0.1 1 0.3 0.6 0.1 1.1 0.3c1.6 3.1 0 5-1.6 6.8-6.2 7.3-12.6 14.5-18.7 21.9-1.7 2-2.8 4.4-4 6.5 2 2.2 3.5 1.5 4.9 0.7 7.4-4.5 14.9-9.1 22.2-13.6 2.6 1.8 0.8 3-0.1 4-1.7 2.2-3.7 4.2-5.3 6.5-0.5 0.7-0.1 2.2 0.3 3.1q0.2 0.2 0.4 0.4 0.2 0.1 0.5 0.2 0.3 0.1 0.6 0.2 0.3 0 0.6-0.1c1.9-0.4 3.7-1.1 5.6-1.7 1.9-0.6 3.6-1 6.7-1.9-1.2 2.2-1.5 3.4-2.3 3.9-3.7 2.4-7.4 4.7-11.3 6.8q-10.3 5.6-20.8 10.7-10.5 5.2-21.2 9.8-10.8 4.7-21.7 9-10.9 4.2-21.9 7.9c-21.7 7.3-43.4 14.2-64.9 21.6q-11.8 4.1-23.4 8.5-11.6 4.5-23.1 9.3-11.5 4.8-22.9 9.9-11.3 5.1-22.5 10.6c-15.8 7.7-31.5 15.6-47.4 23.2-39 18.5-73.9 43-106.3 71.3-37.3 32.7-73.6 66.4-108.8 101.4-30.1 30-58.3 61.6-85.7 94-5.7 6.7-11.4 13.4-17.2 20-2.4 2.7-5.3 5.2-9.3 3.9-4.3-1.4-4.8-5.3-4.7-8.9q0-2.1 0.2-4.2 0.1-2.1 0.3-4.2 0.2-2 0.4-4.1 0.3-2.1 0.6-4.2c3.5-21.8 10.3-42.7 19.2-63q0.3-0.4 0.5-0.9 0.3-0.4 0.6-0.9 0.4-0.4 0.7-0.8 0.3-0.4 0.7-0.8c2.9 0.1 2.8 2.1 2.8 3.5 0.2 5.6 0.1 11.2 0.4 16.8q0.1 0.6 0.2 1.1 0.2 0.6 0.4 1.1 0.1 0.6 0.4 1.1 0.2 0.6 0.5 1.1 0.1 0.1 0.2 0.2 0.1 0.1 0.2 0.2 0.1 0.1 0.3 0.1 0.1 0 0.3 0c0.7 0 1.8-0.1 2-0.6q0.3-0.5 0.5-1 0.2-0.6 0.4-1.1 0.2-0.6 0.4-1.1 0.2-0.6 0.3-1.2c2-7.7 4-15.5 6-23.2 0.5-1.7 1.6-3.4 2.7-5.8 3.2 3.5 1.5 6.7 1.7 9.6 0.2 2.9-0.8 6.2 0.8 9 0.9-0.1 1.4 0 1.6-0.2q0.3-0.1 0.5-0.3 0.2-0.2 0.4-0.4 0.2-0.3 0.4-0.5 0.1-0.2 0.3-0.5 8.8-24.2 17.5-48.5c0.3-1 0-2.3 0-4.2-2-0.2-3.9-1-5.6-0.7-30 4.9-59.9 10.1-89.9 15q-50.3 8.1-100.7 15.8c-21.3 3.2-42.7 5.9-64.1 8.7-7.9 1-15.9 1.8-23.8 3-5.3 0.8-6.4 2.4-6.7 8.2-0.3 4.8-0.2 9.6-0.2 14.4q0.1 150 0.2 300 0 125.4-0.3 250.8c0 4 0 8 0.2 12 0.4 7 1.9 8.8 8.5 8.8 10.4 0 20.8-0.4 31.2-0.8 4-0.2 8-0.9 12-0.9 18-0.2 35.7-3.5 53.5-6.2q29-4.5 58.1-8.6c20.6-3 41.2-5.7 61.7-8.7 23.8-3.4 47.5-7.1 71.2-10.5 18.6-2.7 37.1-5.6 55.8-7.9 15-1.9 30.2-3 45.3-4.2 11.2-0.9 22.4-1.9 33.5-1.8q11.4 0.1 22.8 1.1 11.3 1 22.6 2.8 11.2 1.9 22.3 4.6 11.1 2.7 21.9 6.2c12.7 4.1 24.3 10.2 34.3 19.3 2.8 2.6 5.5 5.6 10.2 6.5q0.2-0.5 0.4-1.2 0.2-0.6 0.3-1.2 0.2-0.6 0.3-1.2 0.1-0.6 0.2-1.2c0.2-3.6 0.2-7.2 0.2-10.8q0-274.3 0-548.5c0-4.8 0-9.6-0.4-14.4-0.4-4.1-3.2-6.4-7.4-6-6 0.6-11.9 1.6-17.8 2.4-15.5 2-30.9 4.6-46.4 5.7-11.9 0.9-24 0-35.9-0.2-6.4-0.2-12.7-0.9-18.9-1.4-0.8 3 1 3.4 2.4 3.7 14.4 3.2 28.8 6.7 43.3 9.4 6.2 1.2 12.8 0.6 19.2 0.9 4.3 0.2 8.8-0.6 12.8 1.2 1 2 0.1 3.1-1.4 4q-0.1 0.1-0.3 0.2-0.1 0-0.2 0.1-0.2 0.1-0.3 0.1-0.1 0.1-0.3 0.1c-34 11.7-67.3 25.6-103 31.7-13.4 2.2-26.8 4.1-40.5 4.1-12.8 0-25.6 0-38.4 0.3q-1.6 0.1-3.3 0.3-1.6 0.2-3.2 0.4-1.6 0.3-3.2 0.6-1.6 0.4-3.2 0.8c-1.1 0.3-1.9 2-3.6 3.8q0.6 0.3 1.3 0.6 0.6 0.3 1.2 0.5 0.6 0.3 1.3 0.5 0.6 0.2 1.2 0.4 0.6 0.1 1.2 0.2 0.6 0.1 1.2 0.1 0.6 0 1.2 0 0.6 0 1.2-0.1c13.7-1 27.1 1.5 40.6 3.5 18.3 2.6 36.5 3.7 54.6-1.9 1.4-0.4 3-0.3 6.3-0.6-2.1 2.3-2.8 3.7-3.9 4.2-11.9 4.7-23.7 9.7-35.9 13.6-6.7 2.1-14.1 2.5-21.2 3.5-18.2 2.5-36.5 4.8-54.6 7.4-7.9 1.2-15.8 2.8-23.6 4.5-6 1.4-11.7 1.7-17-0.9-1.1-3.9 1.1-5.9 2.9-8 8.7-10.4 17.3-21 26.4-31.1 31.2-34.3 63.5-67.7 98.3-98.4 38.4-34 77.4-67.1 121.1-94.2 29.3-18.1 58.9-35.6 89.2-51.8q10.5-5.7 21.1-10.9 10.6-5.3 21.3-10.3 10.8-4.9 21.7-9.5 10.9-4.6 22-8.9c50.7-19.1 98.7-43.7 146-69.9 15-8.3 29.9-17 44.9-25.3 3.8-2.2 7.3-5 12.3-5 4.7 3.7 6 9.1 6.6 14.7q0.1 1-0.1 2.1-0.2 1-0.7 2-0.5 0.9-1.2 1.7-0.7 0.8-1.7 1.3-1.1 0.7-2.3 1.4-1.1 0.7-2.3 1.3-1.2 0.7-2.4 1.2-1.2 0.6-2.4 1.2c-9.3 3.8-18.7 7.2-27.9 11-2 0.8-3.7 2.3-5.5 3.5 1.6 3.7 4.3 3.1 6.5 2.8 6.3-1 12.6-2.2 18.9-3.3q1.2-0.2 2.3-0.4 1.2-0.2 2.4-0.3 1.2-0.1 2.4-0.3 1.2-0.1 2.4-0.1c4.5-0.2 6.7 2.3 6.5 6.6-0.3 6.2-2.7 10.9-9.2 12.4-11.6 2.9-23.3 5.8-35 8.2-7.4 1.4-15 1.9-22.5 2.9q-0.8 0.1-1.5 0.3-0.7 0.1-1.4 0.3-0.7 0.2-1.3 0.4-0.7 0.2-1.4 0.5c0.6 3.5 3.1 2.6 4.7 2.6 13.2 0.1 26.4 0 39.6 0.1 3.9 0 8-0.5 12 2.7-3.4 6.8-8 12.4-15.2 14.3-16.5 4.4-33 9.7-50.5 9.1-11.2-0.3-22.4-0.1-33.6 0-2.6 0-5.3 0.5-7.8 0.7-0.4 3 1.4 3.2 2.9 3.8 12.9 4.6 26.4 6.2 40 6.8 8.7 0.3 17.6 0 26.4 0 2.6 0 5.3 0.6 8.8 1-0.9 3-1.2 5.3-2.3 7.3-7.5 13.4-17.4 25-28.5 35.3-10.2 9.5-23.4 13.8-36.6 17.3-6.1 1.6-12.6 2-18.9 2.9-4.2 0.6-8.7 0.5-12.8 3.8 4.2 4.8 10.6 0.6 14.9 4.5-2.2 4-6.3 3.3-9.4 4.2-3.2 0.9-6.3 1.2-9.4 2-3.3 0.9-6.6 2-11.2 3.4 4.3 3.3 8 2.3 11.3 2.8 3.3 0.5 7.3-0.1 9.5 4-1.7 4-5.3 6-8.8 7.7-10.8 5.2-21.4 10.9-32.7 14.7-22.4 7.7-45.6 11.6-69.3 13.1-19.6 1.2-39.1 2-58.7 1.9-12.5 0-24.8-1.7-37-3.8-15-2.4-29.8-5.8-45.1-5.8q-1.4 0-2.7 0-1.4 0-2.7 0.1-1.4 0-2.7 0.1-1.3 0.1-2.7 0.3c-1.3 0.1-2.5 1.3-4.8 2.5 2.5 1.3 3.8 2.3 5.3 2.5 24.6 3.7 48.2 11.2 72.1 17.8 19.4 5.3 38.9 9.2 59 9.9 6 0.3 12 1.6 17.9 1.4 11.2-0.5 22.4-1.6 33.5-2.6q2.1-0.1 4.2-0.3 2.1-0.2 4.1-0.5 2.1-0.3 4.2-0.6 2.1-0.3 4.1-0.7c11.1-2.2 22.3-2.1 33.5-2.1 28.8-0.1 57.6 0.1 86.4-0.1 36.5-0.2 72.6 4.4 108.5 10.4 7.1 1.2 14 3.2 21 5.1 33.6 9.2 67.3 17.7 101.5 24 22 4 44.1 7.7 66.5 9.1 9.5 0.6 19.1 1.5 28.6 2.5 4 0.4 8.3 0.6 11.7 2.3 6.7 3.4 13.5 4.5 20.8 4.8 5.2 0.2 7.2 2.2 7.7 7.4 0.4 4.7 0.4 9.5 0.4 14.3q0 200.4 0 400.9 0 96.6 0 193.2c0 4 0.2 8-0.2 12-0.2 2.7-1.2 5.3-2 8.5zm-600.7-45.6c4.8 0.6 7-2.8 9.8-4.8q4.9-3.7 10.1-7 5.2-3.4 10.5-6.4 5.4-3 10.9-5.6 5.6-2.7 11.3-5c25.8-10.6 53-15.5 80.6-16.9q14.2-0.6 28.5-0.8 14.2-0.2 28.4 0.2 14.3 0.3 28.5 1.1 14.2 0.8 28.4 2c8.4 0.8 16.8 1.4 25 2.8 27.6 4.8 55.1 9.9 82.6 14.7 22 3.8 44.1 7.4 66.2 11 22.5 3.7 45 7.4 67.5 10.8 19.7 3.1 39.4 6.3 59.5 6.5 13.8 0.1 14.8-0.8 14.9-15q0.7-107.4 1.3-214.7c0.1-16 0-32 0.1-48q0.1-145.2 0.2-290.3 0.1-1.7 0.1-3.3-0.1-1.7-0.1-3.3-0.1-1.7-0.2-3.3-0.1-1.7-0.3-3.3c-0.2-1.7-1.9-3.5-3.4-4.5q-0.6-0.4-1.3-0.7-0.7-0.3-1.4-0.5-0.7-0.2-1.4-0.4-0.8-0.1-1.5-0.2c-13.5-1.8-26.9-3.7-40.4-5.2-30.2-3.3-60.2-8-89.7-15.7-30.1-7.8-60.1-16.3-91-21.5-18.9-3.1-37.8-6.6-56.9-8.2-21.5-1.8-43.1-2-64.7-2.2-16-0.2-31.9 1.3-47.9 1.4-29.3 0.2-58.2 4-87 8.2-8.1 1.2-15.4 4-21.4 9.8q-1.3 1.2-2.7 2.4-1.3 1.2-2.7 2.4-1.3 1.2-2.8 2.3-1.4 1.1-2.8 2.2c-8.7 6.3-17.6 12.2-28.6 14.5-10.8 2.3-16.8 10.5-17.1 21.6-0.1 2.8 0 5.6 0 8.4q-0.2 274.1-0.5 548.2c0 4 0 8 0.2 12q0.1 0.6 0.2 1.1 0.2 0.5 0.3 1.1 0.2 0.5 0.3 1 0.2 0.6 0.4 1.1z"/><path class="a" d="m1535.8 1369.7c-0.6-3.2-0.9-6-1.6-8.6-3.7-12.5-3.4-25.3-2.4-38 0.9-10.3 5.3-19.3 11-27.6 4.5-6.6 9.4-12.9 13.8-19.6 5.3-8 10.2-16.3 15.3-24.4 1.9-3 3.7-5.9 6.3-9.9 1.3 2.3 2.3 3.4 2.7 4.8 0.8 3 1.4 6.2 2.2 9.3q1.1 4.6 2.9 9.1 1.8 4.4 4.2 8.6 2.4 4.1 5.4 7.9 3 3.7 6.5 7c15.4 14.8 32 27.7 50.7 37.9q2.5 1.4 4.9 3 2.3 1.7 4.4 3.5 2.2 1.9 4.1 4 2 2.1 3.7 4.4c8.7 11.2 11.2 23.7 6.7 37.3-2.1 6.4-5.1 12.5-7.5 18.9q-0.5 1.1-0.9 2.2-0.3 1.1-0.6 2.3-0.4 1.1-0.6 2.3-0.2 1.1-0.4 2.3c-0.5 3.8 2.9 6.1 6.3 4.6 4-1.9 7.8-4 11.7-6 3.9-2.1 7.7-4.3 11.7-6.3 1.3-0.6 3-0.6 5-1 0.6 2.3 1.4 4.1 1.6 6 0.7 13.5 1.3 27.1 2 40.7q0.3 4.8-0.2 9.6-0.5 4.7-1.7 9.4-1.2 4.6-3.1 9.1-2 4.4-4.6 8.4c-6.5 10.5-14 20.4-21.1 30.6-3.8 5.6-7.6 11.2-11.4 16.8 0.6 6.3 1.1 12.7 1.9 19 1.5 12.7 3.3 25.3 4.9 38q0.1 0.7 0.2 1.5 0 0.7 0.1 1.5 0 0.7 0 1.5 0.1 0.7 0.1 1.5-0.1 0.7-0.4 1.4-0.4 0.7-0.9 1.2-0.6 0.5-1.4 0.7-0.7 0.2-1.4 0.1c-4.4-0.8-8.6-1.8-13-2.6q-0.8-0.2-1.7-0.3-0.9-0.2-1.8-0.3-0.9-0.1-1.8-0.2-0.8 0-1.7-0.1-1.1 0-2.1 0.5-0.9 0.4-1.6 1.3-0.7 0.8-0.9 1.8-0.3 1.1 0 2.1c0.8 3.1 1.9 6.1 3 9.1q1.3 3.5 2.4 7.1 1.1 3.6 2 7.2 0.9 3.7 1.5 7.4 0.6 3.7 1.1 7.4c2.7 27.3-6.9 49.3-29.4 65.4q-0.6 0.4-1.2 0.7-0.6 0.3-1.2 0.7-0.6 0.3-1.2 0.6-0.6 0.2-1.2 0.5c-4.8-0.1-6.8-3.4-9.2-6-10.4-11.6-20.7-23.3-31-35-7.4-8.4-14.8-16.9-22.2-25.2-2.4-2.6-5.1-4.9-8-7.8-5.4 2.9-10.3 5.4-15 8.3-4.5 2.7-8.2 2.2-12-1.1-5.2-4.5-10.1-9-12.7-15.7-3.7-9.4-11-14.2-20.9-16-6.3-1.1-12.6-1.7-19-0.6q-3 0.5-5.9 0.7-3 0.3-6 0.3-3-0.1-6-0.4-3-0.3-5.9-0.9-1.1-0.2-2.1-0.4-1.1-0.1-2.1-0.2-1-0.1-2.1-0.2-1-0.1-2.1-0.1c-16.3-1.1-31.3-6.2-45.3-14.3-30.9-17.6-51.4-44-64.5-76.4-3.3-8.1-4.5-17-6.5-25.5-0.5-2.2-0.1-4.7-0.1-7.5l10.9-3.6c1.7-3.3 0.1-5.2-1.2-7.2-4-6-8.1-11.9-12-17.9q-1.6-2.4-2.9-4.9-1.3-2.5-2.4-5.2-1.1-2.6-1.9-5.3-0.9-2.7-1.5-5.5c-4.5-19.5-5.6-38.7 0.3-58.1 2.1-6.9 3.4-14 5.4-20.9q0.3-1.1 0.7-2.1 0.4-1.1 0.8-2.1 0.4-1.1 0.9-2.1 0.4-1.1 0.9-2.1c9.2-1.6 14.8 8.6 24.5 6q-0.2-0.8-0.5-1.6-0.3-0.7-0.6-1.5-0.3-0.7-0.7-1.5-0.3-0.7-0.7-1.5c-11.2-18.8-14.7-39.5-15.6-60.9q-0.1-4.2 0-8.4 0-4.2 0.3-8.4 0.3-4.2 0.8-8.3 0.5-4.2 1.2-8.3 3.6-22.5 7.2-45c0.6-3.9 1.2-7.9 3.2-11.1 3.5-0.4 4.7 1.9 5.8 4 3.6 7.1 7.1 14.3 10.6 21.5 1.8 3.6 3.2 7.3 5.1 10.8 3.2 5.7 8.2 8.9 14.7 8.6q1.8-0.1 3.6-0.3 1.8-0.1 3.6-0.4 1.7-0.2 3.5-0.6 1.8-0.3 3.5-0.7c7.8-2.1 11.9-7.8 12.8-15.7 1.2-10.1-2.2-19-9.2-26.2-7.1-7.2-14.5-13.9-21.8-20.6-5.6-5.1-11.6-9.9-17.3-14.9-12.7-11.3-16.2-23.9-10.2-39.9 3.3-9 7.3-17.8 11.2-26.5 5.3-11.6 10.5-23.4 16.4-34.7 4.9-9.5 4.3-17.6-0.9-27-9.3-16.9-10.8-34.9-2.5-53q0.3-0.5 0.6-1 0.3-0.5 0.6-1 0.3-0.5 0.7-1 0.4-0.4 0.7-0.9c0.2-0.3 0.7-0.3 1.9-0.8q0.2 0.5 0.5 1 0.2 0.4 0.4 0.9 0.3 0.5 0.5 1 0.1 0.5 0.3 0.9c0.4 2 0.3 4 0.5 6 1.4 13.4 7.4 23.5 20.4 28.6 13 5.2 20.2 15.2 25.1 27.5q1.5 3.5 2.2 7.2 0.7 3.7 0.7 7.4-0.1 3.8-1 7.5-0.9 3.6-2.5 7c-2.3 5.1-5.2 9.9-7.6 15-2 4-4 7.9-5.2 12.1-2.3 8.6 2.5 17 10.8 20.2 1.6 0.6 3.3 0.9 5 0.9 1.7 0 3.4-0.3 5-1 1.6-0.6 3.1-1.5 4.3-2.6 1.3-1.1 2.4-2.5 3.2-4 1.8-3.5 2.6-7.5 3.4-11.4q0.2-1.2 0.4-2.5 0.1-1.2 0.3-2.5 0.1-1.3 0.2-2.5 0.1-1.3 0.2-2.6c2.7-2 4.3-0.8 5.7 0.6 4.2 4.4 8.3 8.7 12.4 13.1 10.7 11.9 21.1 24 32.1 35.6 15.7 16.6 29.1 35 43.4 52.9q1.3 1.8 2.6 3.6 1.3 1.8 2.6 3.7 1.2 1.9 2.4 3.8 1.2 1.9 2.3 3.9c5.4 8.8 7 18.6 5.7 28.8-0.1 1.2-0.4 2.4-0.5 3.6-2.3 20.3-13.7 33.5-32.1 41.2-10 4.2-20 8-30.1 12-2.6 1-5.3 2-7.8 3.3-4.1 2-5.1 4.1-4.4 8.7 4.4 29.1 19 51.3 44.7 66.1 4.5 2.6 9.1 5 14.5 5 1.9 0 3.8-0.9 6.2-1.5z"/><path fill-rule="evenodd" class="a" d="m215.8 1759.6c-0.2-6.1 2.9-9.5 5.2-13.1 11.9-19 24-37.8 36-56.7 2-3.3 5.3-6 5.1-11.2-1.2-0.4-2.7-1.4-4-1.2-11.5 1.4-23 2.7-34.4 4.6-4.9 0.8-6.5 3.1-6.8 8.5q0 1.5 0 3-0.1 1.5 0 3 0 1.5 0 3 0.1 1.5 0.2 3c0.4 7.3-1.3 14.1-4.3 20.9q-1.5 3.4-3.6 6.5-2.1 3.1-4.7 5.8-2.6 2.6-5.7 4.8-3.1 2.1-6.5 3.6-4 1.8-8.1 3.3-4.1 1.5-8.2 2.7-4.2 1.2-8.5 2.1-4.2 0.9-8.5 1.5-6.1 0.8-12.3 1.2-6.1 0.5-12.3 0.4-6.1 0-12.2-0.5-6.2-0.5-12.2-1.4c-20.8-2.9-39.3-11.1-51.7-29.3-1.1-1.6-2.3-3.2-3.3-5-4.4-8-5.7-15.4 1.6-22.9 4.5-4.5 7.8-10.1 11.6-15.3q2-2.6 3.9-5.3 1.8-2.8 3.3-5.7 1.6-2.9 2.9-5.9 1.4-3 2.5-6.2c8.2-25.2 25.6-42.8 47.7-56.3 5.2-3.2 10.5-5.8 15.7-8.9 4.4-2.7 5.1-5.3 2.8-10.1q-0.1-0.3-0.2-0.6-0.2-0.2-0.3-0.5-0.1-0.3-0.3-0.5-0.1-0.3-0.3-0.5c-8.9-11.3-10.2-25-11.6-38.5-0.6-6.3-0.1-12.8 0-19.2q0-2.7 0.4-5.3 0.3-2.7 0.9-5.4 0.6-2.6 1.5-5.1 0.9-2.6 2.1-5.1c10.9-23.9 25.2-45.5 45.3-62.7 7.8-6.6 13.6-14.5 18.8-23 6.2-10.4 11.8-20.9 11.4-33.6-0.1-3.4 1.2-7 1.8-10.2 3.7-0.6 4.6 1.9 6.1 3.6 5.3 6.5 10.5 13 16 19.4 1.5 1.6 3.9 2.4 6.7 4.2 0.8-2.6 1.8-4.4 1.7-6.2 0-9.6 0.6-19.3-0.7-28.7-1.5-10.6-0.2-20.7 1.3-31 5.8-39.1 25.7-69.1 58.5-90.9 8-5.3 15.6-11.2 23.5-16.6 10.9-7.4 15.2-18 16.1-30.6 0.4-6 1-12 1.8-17.9q0.4-2.5 1.1-4.9 0.8-2.5 2-4.7 1.2-2.3 2.7-4.3 1.6-2.1 3.4-3.8c3.5-3.4 6.7-6.9 10.2-10.2 1.4-1.2 3.2-1.9 5.7-3.3 0.9 3.5 1.9 6 2.1 8.6 1.1 13.6 1.6 27.2 3 40.7 1.9 17.5 4.4 34.9 6.9 52.3 1.8 12.6 7.6 23.4 15.6 33.2 22 26.6 40.7 55.4 53.4 87.7 1.4 3.4 2.9 6.6 4.5 9.9 5.9 11.8 11.2 23.8 13.2 37.1 0.7 4.7 3 6 7.6 5 4.7-1 9.2-2.7 14.3-1.7 3.2 4 3.2 9 4 13.6 4.7 31.7 9.5 63.3 13.8 95 3.8 28.8-3.2 54.8-22.7 76.8-4.7 5.3-10.5 9.8-15.9 14.5q-5.6 5-11.4 9.8-5.8 4.7-11.8 9.3-5.9 4.5-12 8.9-6.1 4.3-12.4 8.4c-7 4.6-14.3 9-22.1 12-25.2 9.7-45.8 25.9-65.5 43.6-23.4 21.1-38.4 47.9-50.9 76.3-4.3 9.8-7.8 20.1-11.6 30.2-1.2 3.3-2.2 6.8-3.3 10.2-3.2 9.2-5.3 10.9-15.2 7.5-9.9-3.5-16.7-10.1-18.8-21.3q-0.7-4.2-1.2-8.3-0.4-4.2-0.6-8.4-0.1-4.2 0-8.4 0.2-4.2 0.6-8.4 0.2-1.4 0.4-2.9 0.1-1.5 0.2-3 0.1-1.5 0.2-3 0.1-1.5 0.1-3c0-4.5-2-6.7-6.3-7.2-2.8-0.4-5.6-0.3-8.4-0.6-2-0.2-3.9-0.7-6.6-1.2zm0.5-178.4q0 0 0 0 0 0 0 0zm16.4-2.7c22.3-5.9 38.6-34.3 32.1-55.6-1.1-3.4-1.8-7-2.9-10.4-5.8-17.1-18.1-26.6-35.7-29.7-2-0.4-3.9-0.6-5.9-0.8-16.2-2-29.9 3-40.9 15.1-13.7 15-17.1 38.7-8.3 57q0.5 1.3 1.1 2.5 0.7 1.1 1.4 2.3 0.7 1.1 1.6 2.1 0.8 1.1 1.7 2.1c10.9 10.6 23.4 18 39.3 18.1 5.5-0.9 11.1-1.3 16.5-2.7z"/><path class="a" d="m870.1 300.8c2.6 2.2 4.9 3.8 6.8 5.8 14 15.4 27.8 30.9 41.8 46.2 3.2 3.6 6.7 6.9 10.1 10.2 1 1 3.7-0.1 4-1.5q0.1-0.4 0.2-0.9 0.1-0.4 0.1-0.8 0.1-0.5 0.1-0.9 0.1-0.5 0.1-0.9c-0.9-12.1-3-24-10.8-33.8-5.9-7.5-11.9-15.1-18.8-21.7-18.9-18-28.9-40.5-30.7-65.9q-0.4-6.6 0.2-13.2 0.6-6.6 2.2-13 1.7-6.5 4.4-12.5 2.6-6.1 6.2-11.7c9.3-14.4 19.6-28.2 29.6-42.3q0.2-0.2 0.6-0.5 0.3-0.3 0.6-0.5 0.3-0.3 0.6-0.5 0.4-0.2 0.7-0.5 0.8 0.2 1.5 0.4 0.8 0.3 1.6 0.5 0.7 0.2 1.5 0.5 0.7 0.2 1.5 0.5c2.2 0.9 4.2 2.2 6.4 3.2 1.8 0.9 3.8 1.7 5.6 0.2 1.8-1.6 1.5-3.7 0.6-5.5-2.7-5.4-5.3-10.8-8.3-16q-1-1.8-1.9-3.7-0.9-1.9-1.7-3.9-0.7-1.9-1.3-4-0.6-2-1.1-4c-2.5-11.3-1.9-22.3 4-32.6 2.2-3.8 4.1-7.8 6.3-11.6q1.6-2.7 2.8-5.6 1.2-2.9 2-6 0.8-3 1.1-6.2 0.3-3.1 0.1-6.2c-0.4-6-0.3-12-0.3-18q0.1-0.8 0.2-1.5 0.1-0.8 0.2-1.5 0.1-0.7 0.3-1.5 0.1-0.7 0.3-1.4c1.8 0.4 3.1 0.3 3.9 1 8.3 7 15.8 14.8 21.3 24.2q1 1.7 1.8 3.4 0.9 1.7 1.6 3.5 0.8 1.8 1.5 3.6 0.7 1.8 1.3 3.7 0.8 2.1 1.2 4.3 0.4 2.2 0.3 4.5 0 2.3-0.5 4.5-0.5 2.2-1.4 4.3c-4.9 11.2-2.2 21.1 5.1 30.1 5.9 7.1 12 14 17.9 21 3.1 3.6 6.4 7.2 8.9 11.2q1.9 2.9 3.1 6.2 1.3 3.2 1.9 6.6 0.6 3.4 0.5 6.8-0.1 3.5-0.9 6.9-0.9 3.8-2.1 7.5-1.2 3.7-2.6 7.3-1.5 3.6-3.2 7.1-1.7 3.5-3.6 6.9c-5.8 10.5-11 21.3-16.2 32.1-0.9 1.9-0.9 4.4-1.5 7.7 2.6-0.7 4.3-0.7 5.3-1.5 7.7-5.8 15.2-11.7 22.9-17.5 3.4-2.7 7-5.3 10.6-8 7.8 5.1 9.4 13.3 13 20.2 3.7 6.8 5.9 14 5.6 21.8-0.3 7.8 1 16.1-1.8 23.8-2.6 6.9-5.7 13.6-8.8 21 8-0.4 11.8-7.8 18.8-8.7 4.6 1.7 5.9 6.1 8.1 9.8q1.1 2 2 4 1 2.1 1.6 4.2 0.7 2.2 1.1 4.4 0.4 2.2 0.6 4.4c1.1 15.2-2.3 29.4-7.4 43.4-1 2.7-2.3 5.2-3.4 7.8-2.8 7-2.7 9.9 0.6 11.8 5.2 2.9 8.2-1.4 11.3-4.1 3.7-3.1 6.8-6.8 10.3-10q0.8-0.6 1.5-1.2 0.7-0.5 1.4-1 0.8-0.6 1.5-1.1 0.8-0.5 1.6-1 0.6 0.5 1.2 1 0.6 0.5 1.2 1 0.6 0.5 1.2 1.1 0.6 0.5 1.2 1c15.3 17.2 22.1 37.9 22.9 60.5q0.1 3.9-0.2 7.8-0.3 3.9-1 7.7-0.7 3.8-1.9 7.6-1.1 3.7-2.7 7.3-0.7 1.5-1.3 3-0.6 1.6-1.2 3.1-0.6 1.5-1.1 3.1-0.6 1.5-1.1 3.1-0.3 1-0.3 2.1 0.1 1.1 0.7 2 0.5 0.9 1.5 1.5 0.9 0.6 1.9 0.7 0.6 0.1 1.2 0.2 0.6 0.1 1.2 0.1 0.6 0.1 1.2 0.1 0.6 0 1.2 0c6.9-0.1 9.4 3 8.7 9.7-1 10.4-2.2 20.6-5.7 30.6-7.7 22.4-23.5 35.7-45.8 41.8-13.3 3.7-26.9 3.9-40.5 1.7q-4.7-0.7-9.4-1.8-4.7-1-9.3-2.3-4.6-1.3-9.2-2.8-4.5-1.6-9-3.4c-19.3-8-39.4-13.1-60-16.4-15.4-2.5-30.4 0.8-44.4 7-12.8 5.7-25.1 12.5-37.5 18.8-3.9 2-7.7 4.2-11.6 6.4-10.1-3.5-17.2-10.6-24-17.8-12.4-12.8-22.2-27.7-27.2-44.7q-2-7.2-3.2-14.7-1.3-7.4-1.6-14.9-0.3-7.5 0.2-15 0.6-7.5 2-14.8c1.3-6.6 2-13.5 7.4-19.2q0.8 0.3 1.6 0.6 0.8 0.4 1.6 0.7 0.8 0.4 1.6 0.7 0.8 0.4 1.6 0.8c3.7 2.3 7.3 5 11 7.4 2 1.2 4 3.1 6.5 1.9 3.2-1.6 2.4-4.8 2.5-7.5 0-2-0.3-4-0.5-6-1-14.5 1.9-27.9 12.1-38.9 6.2-6.7 12.4-13.5 19.4-19.5q3.2-2.7 6.1-5.8 2.8-3.1 5.3-6.5 2.4-3.4 4.4-7.1 2-3.7 3.5-7.6c3-7.9 6-15.7 9.2-23.4 1-2 2.6-3.7 4.3-6.1z"/><path class="a" d="m1058.6 2864.1c7.1 10.5 17.8 16.8 24.6 26.4-2.4 6.3-7.2 8.5-12 10.3-5.3 1.9-10.8 3.7-16.4 1.5-5.6-2.3-10.9-4.9-16.2-7.5-2.9-1.4-5.5-3.1-8.8-5-1.6 2.2-3.4 3.8-4.2 5.8-1.5 3.7-2.4 7.6-3.6 11.4q-0.4 1.2-0.7 2.3-0.4 1.2-0.8 2.3-0.4 1.1-0.9 2.2-0.4 1.1-0.9 2.2c-2.1 4.5-5.2 5.2-9.9 3.1-3.4-1.4-6.1-6.7-10.3-3.6-3.3 2.4-0.5 6.8-0.7 10.3-0.5 6.6-3 12.4-8.2 16.7q-0.6 0.5-1.1 1-0.6 0.5-1.2 0.9-0.6 0.5-1.3 0.9-0.6 0.4-1.2 0.8-4 2.2-7.8 4.6-3.8 2.3-7.4 5-3.7 2.6-7.2 5.4-3.5 2.8-6.8 5.9c-0.5 0.5-1.5 0.5-3 1-1.8-1.3-4.3-2.7-6.1-4.6q-15-15.5-29.7-31.4c-3.8-4.1-7-8.5-13.8-7.5-3.6 0.5-6.7-2.2-8.7-5.5-1.7-2.7-3-5.6-4.8-8.3-1.9-3-3.4-6.4-7.9-7.7-1.7 0.8-3.8 2-6 2.8-5.2 2-10.4 4-15.6 5.9-9.8 3.4-18.1 0.6-25.4-6.1q-0.9-0.8-1.8-1.6-0.8-0.9-1.6-1.8-0.9-0.8-1.6-1.7-0.8-0.9-1.6-1.9c-0.7-0.8-0.8-2.2-1.3-3.6 6-6.8 17-7.3 21.8-16.8-1.8-1.3-3.2-2.8-4.9-3.4q-1.7-0.7-3.4-1.2-1.7-0.6-3.4-1.2-1.7-0.5-3.4-1-1.8-0.4-3.5-0.8c-22.3-5-46.9-28.6-50.4-56.8-2.6-21.3 1.2-41.4 7.8-61.2 3.8-11.5 9-22.3 16.8-31.6 1.2-1.4 2.9-2.2 5.2-3.9 0.9 2.8 1.5 4.6 1.9 6.5 0.6 3.5 0.8 7.1 1.6 10.6q0.4 1.8 1.1 3.4 0.7 1.7 1.7 3.2 1 1.5 2.3 2.7 1.3 1.3 2.8 2.3 4 2.6 8.1 5 4.2 2.4 8.5 4.6 4.3 2.1 8.7 4 4.4 1.8 8.9 3.4c0.3 0.1 0.7-0.2 1.1-0.3 1.6-1.3 1.3-3 0.3-4.2-3.7-4.7-7.6-9.3-11.4-14-3-3.6-6.2-7.3-9.2-11-8.3-10.1-9.5-21.7-6.9-34q0.6-2.8 1.5-5.5 0.8-2.7 1.9-5.4 1.1-2.6 2.4-5.1 1.3-2.6 2.9-5 15.8-24 31.9-47.9c2.2-3.2 4.8-6.2 7.7-9.9l10.3 7.9c1.1-2.2 2.4-3.7 2.6-5.4 1-10.6 5.1-20 9.9-29.4q2.9-5.6 6.1-11 3.2-5.4 6.7-10.7 3.5-5.2 7.2-10.3 3.8-5 7.8-9.9c7.9-9.6 15-19.7 20.1-31.1 1.1-2.4 2.9-4.6 4.5-7 1.5 0.7 3 0.8 3.6 1.6 10.4 13.6 21.1 27.1 31.1 41 7 9.8 13.2 20 19.4 30.3 6.1 10 9.4 21.1 11.9 32.5 0.9 3.9 1.9 7.8 3.1 11.6 0.4 1.4 1.6 2.6 2.9 4.6q0.6-0.4 1.3-0.7 0.6-0.4 1.2-0.8 0.6-0.4 1.2-0.8 0.6-0.4 1.2-0.9c2.1-1.7 4-3.6 6.5-5.9 2.1 1.9 4 3.3 5.4 5.1 12.8 16.8 24.8 34.3 35 52.9 6.1 11.2 6 22.2 1.6 33.5q-1 2.6-2.2 5.2-1.3 2.6-2.8 5-1.4 2.4-3.1 4.7-1.7 2.3-3.6 4.5c-6.4 7.1-12.4 14.6-18.6 22-1.8 2.1-3.5 4.3-5.1 6.6-1.2 1.7-2.1 3.7 0 5.3 1.8 1.5 3.9 0.8 5.5-0.5q0.9-0.7 1.8-1.5 0.9-0.8 1.8-1.6 0.9-0.8 1.8-1.6 0.9-0.8 1.7-1.7c12.3-12 24.5-24.1 36.8-36.2 2.8-2.7 5.8-5.3 9-8.3 2.4 2 4.5 3.1 5.9 4.9 7.6 10.4 13.7 21.7 17 34.2 5.4 20.3 7 40.8 3.3 61.7-2.2 12.8-9 22-19.3 29-10.6 7.2-22.7 9.6-35.1 11-2.8 0.3-5.7 0.2-8.4 0.9-1.6 0.3-3.2 1.6-5.5 2.9z"/><path class="a" d="m949 1120c-18.3-3.8-33.7-10.2-46.9-21.2-13.8-11.5-22.1-26-23.8-44.1q-0.8-9-2-17.9c-0.3-1.8-1.2-3.6-2-6q-1.1 0.2-2.2 0.4-1 0.2-2.1 0.5-1 0.2-2.1 0.5-1 0.3-2.1 0.6c-7.9 2.8-15.8 5.7-23.5 8.9-7.6 3.1-10.7 1.2-14.7-3.8-13.4-17-18.9-36-13.1-57.3q0.6-2 1.4-3.9 0.7-2 1.6-3.9 0.9-1.8 2-3.6 1.1-1.8 2.3-3.6c7.1-10.6 15.4-20.4 25.9-28 4.2-3.1 8.3-6.2 12.3-9.5 2.8-2.3 6-4.3 6.9-8.3-4.9-8.1-9.7-16.3-14.6-24.4-9.2-15.3-15-31.8-18.4-49.2-7-35.8 10.4-63 34.2-78.5 1.6-1 3.6-1.5 6.1-2.5 1 2.4 2.4 4.4 2.5 6.5 0.3 10.8 0.3 21.6 0.6 32.4q0 1.2 0 2.4 0.1 1.2 0.1 2.4 0.1 1.2 0.2 2.3 0.2 1.2 0.3 2.4 0.2 0.4 0.4 0.8 0.3 0.3 0.6 0.6 0.3 0.3 0.7 0.5 0.3 0.2 0.8 0.3 0.4 0.1 0.8 0 0.4 0 0.8-0.2 0.4-0.1 0.8-0.4 0.4-0.2 0.7-0.5 0.7-1.1 1.5-2.2 0.7-1.2 1.4-2.3 0.7-1.2 1.4-2.3 0.6-1.2 1.2-2.4c7.4-14.2 14.2-28.7 22-42.7 10.6-19.2 26.3-33 47.3-40.2q1.4-0.4 2.9-0.8 1.4-0.4 2.9-0.8 1.4-0.4 2.9-0.7 1.4-0.3 2.9-0.5c3.2-0.6 5.2 1.7 4.7 5.1-0.2 2-0.7 3.9-1.1 5.9-2.5 11.2 0 21.2 6.6 30.6q2.4 3.4 5.1 6.6 2.8 3.3 5.8 6.2 2.9 2.9 6.2 5.6 3.2 2.7 6.7 5 3.4 2.3 6.5 4.9 3.1 2.6 5.8 5.6 2.8 3 5.2 6.3 2.4 3.2 4.4 6.8c9.8 17.5 12.6 35.9 7.2 55.5-4.5 15.9-9.9 31.3-19.5 44.9q-0.4 0.6-0.8 1.2-0.4 0.7-0.8 1.3-0.3 0.7-0.7 1.3-0.4 0.7-0.7 1.3c-2.2 4-1.9 7.8 1.4 11 3.5 3.4 7.3 6.3 10.8 9.6 5.9 5.3 12.1 10.4 17.5 16.3 8 8.7 13.7 18.9 14.3 31 0.8 16.1-4.7 30.6-12.4 44.4q-0.7 1.5-1.9 2.7-1.2 1.2-2.8 1.9-1.5 0.7-3.1 0.9-1.7 0.2-3.4-0.1c-5.8-1-11.6-2.5-17.5-3.9-6.6-1.6-8.3-1.2-11.9 4.7-9.6 16.1-19 32.4-28.5 48.6-6.1 10.4-12 20.8-18.2 31.1-1.6 2.6-3.7 5-5.8 7.9z"/><path class="a" d="m608.2 852.5c0.6 2.4 1.8 5 1.8 7.6 0.1 26.8 7.2 52.1 15.8 77.2 15.9 46.2 31.4 92.4 47.2 138.6 3.4 9.8 7 19.6 10.6 29.4q2.3 6.5 4.3 13.1 1.9 6.6 3.5 13.3 1.6 6.7 2.8 13.5 1.2 6.8 2 13.7c1.3 10.7 1.2 21.5-1.6 32.1-4 15-13.6 25.3-27.6 31.3q-3.7 1.6-7.6 2.7-3.9 1.1-7.9 1.7-4 0.5-8.1 0.5-4 0.1-8-0.5c-15-2-30.1-3.9-45.4-3.4-9 0.3-17.4 1.8-25.4 6.1q-3.1 1.8-6.4 3.2-3.3 1.5-6.8 2.5-3.4 1.1-7 1.7-3.5 0.7-7.1 1c-21.5 1.6-40.2-5.7-56.8-18.6-10.3-8-17.5-18.6-23-30.3-6.8-14.3-7-29.4-5.2-44.7 3.3-28.9 12.7-56.1 24.5-82.5q7.4-16.4 15.3-32.6 8-16.1 16.5-32 8.6-15.8 17.8-31.3 9.1-15.5 18.9-30.6 26.1-40.3 55.7-78.2c1.6-2.1 3.1-4.7 7.2-4.5z"/><path class="a" d="m1076 685.7c13.4 4.9 23.1 14.2 34.7 20.3 1.5-3.9-0.4-5.6-1.6-7.5-11.6-18.6-13-38.2-6.3-58.7q1.4-4.3 3-8.5 1.7-4.2 3.7-8.2 1.9-4.1 4.2-7.9 2.3-3.9 4.8-7.6c2.3-3.3 4.4-6.7 6.7-9.9q2-2.8 3.7-5.9 1.7-3 3-6.2 1.4-3.1 2.3-6.5 1-3.3 1.6-6.7c1-6.7 2.6-13.3 4.2-19.9q0.2-0.6 0.4-1.3 0.2-0.6 0.5-1.2 0.2-0.7 0.5-1.3 0.3-0.6 0.6-1.2c4.3-1 5.6 1.9 7 4.1 5.8 9.5 11.7 19.1 17.2 28.8 6.2 11.2 12 22.6 18.1 33.9 18.6 35 28.7 72.7 35.2 111.5 0.9 5.5 0.8 11.1 0.9 16.7 0.1 16.4 0.2 32.8-2.4 49-0.4 2.4-0.4 4.9-1.1 7.1-11.4 39-27.7 75-59.7 101.9-22.5 18.8-47.7 31.8-77 36.9-21.7 3.7-39.2-3.3-53.8-19.2-1.3-1.4-2.1-3.2-3.3-5.3 2.1-2.3 3.7-4.6 5.7-6.3 13.4-10.8 27.5-20.6 43.1-28q3.6-1.8 7.2-3.8 3.6-1.9 7.1-3.9 3.5-2 6.9-4.2 3.4-2.1 6.8-4.4c10.9-7.1 18.8-17.1 25-28.5 7.4-13.7 6.7-27.7 1.3-41.7-1.7-4.3-4.4-5.8-8.5-4.6-3.8 1.2-7.9 2.3-11 4.6-6.8 5-14.3 6.6-22.3 7.6-5.7 0.7-10.3-0.4-14.5-4-11.3-9.4-18.3-21.7-18.5-36.2-0.4-24.9 6-48.3 20-69.2 1.1-1.6 2.8-2.7 4.6-4.6z"/><path class="a" d="m1883.9 1846.7c1 3.3 2.3 6.1 2.8 9.1 6.1 34.3 10 68.7 10.5 103.7 0.3 27.9-4.6 54.9-12.6 81.4-3.2 10.7-7.4 21.1-11.6 31.5-9.7 24.2-27.2 41.1-49.9 53q-1.2 0.6-2.4 1.1-1.2 0.5-2.5 1-1.3 0.4-2.6 0.7-1.3 0.4-2.6 0.6c-7.4 1.7-14.9 3-22.4 4.4-13.4 2.5-26.6 5.5-39.2 11-7.7 3.3-15.5 6.3-23.4 9.2q-1.1 0.3-2.3 0.7-1.2 0.3-2.3 0.6-1.2 0.3-2.4 0.6-1.1 0.2-2.3 0.4c-0.9-2.1-1.8-3.5-1.9-5q-0.1-1-0.2-2-0.1-1.1-0.1-2.1 0-1.1-0.1-2.1 0-1.1 0.1-2.1c0-45.6 0.5-91.2 0-136.8-0.1-14.4 4.2-26.7 11.8-38.3q0.7-1 1.4-1.9 0.7-1 1.5-1.9 0.8-0.9 1.6-1.7 0.9-0.9 1.8-1.7c15.3-13 31.2-24.7 50.7-31.2 12.5-4.1 24.4-10 36.2-15.8 19.9-9.8 35.3-24.8 47.6-43 3.8-5.6 6.5-11.9 9.6-17.9 1.1-2.1 1.8-4.4 5.2-5.5z"/><path class="a" d="m939.4 671.8l4.1-11.5c1.9-5.3 4-10.4 5.6-15.8 1.6-5.3 0.4-8.4-4.5-10.9-13.5-7-27.6-10.8-42.7-5.9q-1.5 0.5-2.9 0.9-1.4 0.5-2.8 1-1.4 0.5-2.8 1.1-1.4 0.5-2.8 1.1-8.3 3.8-16 8.8-7.7 4.9-14.6 10.9-7 5.9-13 12.8-6 6.9-11 14.5c-12.7 19.3-19.8 40-19.6 63.2 0.2 27.5-0.1 55.2 1 82.7 0.7 17.5 3.7 34.9 5.8 52.4 0.5 4.6 2 9.2 0.5 13.5-3.5 1.3-5.4-0.4-7.3-1.7q-44.5-28.7-60.6-79.3c-7.8-24.9-12.9-50.5-13.2-76.5-0.3-26.4 2.7-52.7 11.3-78 0.8-2.5 2.4-4.8 3.8-7.4 8.9 2.3 13.2 11 21.9 13.5 1.3-2.2 2.7-4 3.8-6.1 6.4-12 13.1-23.9 19-36.1 9.6-20 24.3-35.5 41.8-48.5 13-9.6 27.4-16.4 42.6-21.6q0.6-0.2 1.2-0.4 0.6-0.1 1.2-0.3 0.5-0.1 1.1-0.2 0.6-0.1 1.2-0.2 0.3-0.1 0.7-0.1 0.3 0 0.7 0 0.3 0 0.7 0 0.3 0 0.7 0.1c6.6 6 2.6 16.3 8.8 23 4.6 0.1 9-1.7 13.6-3.1 25.2-8 50.8-9.3 77-6.2 10.8 1.3 21 4.6 31.6 6.6q3 0.6 5.9 0.9 3 0.3 6 0.4 3 0 6-0.3 3-0.2 5.9-0.8 13-2.4 25.9-4.7 0.9-0.1 1.7-0.2 0.8 0 1.6-0.1 0.8-0.1 1.6-0.1 0.9 0 1.7-0.1c3 2.8 2.1 5.7 1.4 8.3-6 24.8-26.2 43.6-53.1 47.1-7.9 1-15.9 1.5-23.8 2.4-4.8 0.5-6.4 2-6.7 6.8-0.4 6.4-0.4 12.8-0.6 19.2q0 2.2-0.3 4.5-0.2 2.2-0.7 4.4-0.5 2.2-1.3 4.3-0.7 2.1-1.7 4.2-0.8 2.1-2.2 3.9-1.3 1.8-3 3.3-1.7 1.5-3.7 2.6-2 1.1-4.1 1.7c-3.9 1.1-7.9 2.3-11.8 2.1-8.3-0.5-16.6-1.8-24.9-3-1.8-0.3-3.3-1.8-5.7-3.1z"/><path class="a" d="m22.1 2128.8c6.4 0.9 9.4 4.4 12.8 7q29.8 23.1 59.4 46.5c17.9 14.2 35.8 28.2 53.3 42.8q3.9 3.3 7.8 6.6 3.8 3.4 7.5 6.9 3.8 3.4 7.4 7 3.6 3.6 7.2 7.2c14.3 15 23.5 33.1 28.4 53.4q0.8 3.3 1 6.8 0.2 3.4-0.3 6.8-0.5 3.5-1.6 6.8-1.1 3.2-2.8 6.2c-2.4 4.5-5.8 7.7-10.7 9-4.2 1.2-8.5 2.1-12.7 3.1-6.3 1.6-7.8 4-5.9 10.5q2.2 7.3 4.9 14.5 2.7 7.1 5.9 14.1 3.1 7 6.7 13.7 3.6 6.8 7.6 13.3 5.3 8.5 11 16.8 5.8 8.2 11.9 16.1 6.2 8 12.8 15.6 6.6 7.6 13.5 14.8c8.9 9.1 18 18.2 26.9 27.3 2.5 2.6 4.9 5.2 7 7.6-1 3.9-3.7 3.6-5.9 3.3-11.8-1.8-23.7-3.6-35.5-5.7-6.2-1.1-12.4-3-18.6-4.6-20.6-5.2-37.7-17-54.6-29.1-20.1-14.4-33.8-34-44-56-29.2-63.6-56.8-127.8-78.6-194.4-9.3-28.1-15.4-57.1-21.7-86-0.4-2.1-0.1-4.5-0.1-7.9z"/><path class="a" d="m807.1 1498.6c-0.1-2.5-0.6-3.7-0.2-4.7q0.3-1 0.7-2 0.3-1 0.7-1.9 0.4-1 0.8-2 0.5-0.9 0.9-1.9c13.4-27.7 26.5-55.5 40.2-83 9.7-19.4 9.3-17.3 27-22.5 27.2-7.9 50.2-22.2 68.9-43.6 9.8-11.3 17.5-23.8 21.7-38.3q1.1-4 2.6-8c8-21.7 8.3-43.7 2.3-66-1.5-5.4-3.1-10.7-4.8-16.1-2.3-7.3-3.6-14.8-2.8-22.4q0.2-1.9 0.5-3.8 0.3-1.9 0.8-3.8 0.4-1.9 1-3.7 0.5-1.9 1.2-3.7c2.4-6.5 5.5-7 10.7-2.5 2.4 2.1 4.6 4.4 6.9 6.6 10.2 9.6 20.3 19.2 30.6 28.7 13.5 12.2 23.9 26.7 32.5 42.6q0.7 1.2 1.2 2.5 0.6 1.2 1.1 2.4 0.5 1.3 0.9 2.6 0.4 1.2 0.8 2.5c4 15.6 6.6 31.3 4.5 47.4-1 7.2-0.7 14.4-1.8 21.5-5.3 36.5-23.1 66-51.5 89.2-24.9 20.3-52.5 36.3-81.8 49.4-33.7 15.1-69 25.2-105 32.9-3.2 0.6-6.3 1-10.6 1.6z"/><path class="a" d="m1157.5 2778.7c0.4-3.9 3.2-4.1 5.1-5.1 11-5.7 22.1-11.3 33.2-16.8q5.4-2.6 10.8-5.4 5.3-2.7 10.5-5.7 5.2-2.9 10.4-6.1 5.1-3.1 10.1-6.4c26-17.3 53.1-32.7 77.6-52.2 7.5-6 14.8-12.3 22-18.5 2.1-1.8 3.6-4.2 5.8-6.7-1.5-5.8-3.1-11.5-4.6-17.3-3.9-15.6-0.6-29.4 10.6-41q1.1-1.1 2.2-2.1 1.1-0.9 2.3-1.8 1.2-0.9 2.5-1.8 1.2-0.8 2.5-1.5 8.8-4.9 18-9 9.1-4.1 18.6-7.4 9.5-3.3 19.3-5.7 9.8-2.4 19.7-4c20.9-3.2 41.9-6.3 62.9-8.7 15.1-1.7 30.3-2.4 45.5-3.2 18-0.9 35.9-1.6 53.9-2.2 3.4-0.1 7.2-1 10.1 1.8 1 3-0.9 4.7-2.6 6.3-9.5 9.7-18.9 19.6-28.9 28.9-31.5 29.1-66.6 53.6-103 76.2-26.2 16.3-52.4 32.5-80.5 45.3-16.3 7.5-32.9 14.7-49.6 21.1-50.2 19.2-101.3 35.2-154 45.6-8.3 1.6-16.6 2.6-24.9 3.8-1.7 0.3-3.6-0.3-5.5-0.4z"/><path class="a" d="m1047.6 1393.6c1.5-4 2.5-7 3.8-9.9 7.2-17 13.3-34.3 15.3-52.7 1.3-11.9 2.4-24 1.9-35.9-0.8-19.2 2-37 11-54.3 7.6-14.6 11.2-30.8 13.9-47q0.2-1.4 0.4-2.7 0.2-1.4 0.3-2.7 0.1-1.3 0.1-2.7 0.1-1.3 0.1-2.7c-0.1-22.8-2.1-45.5-7.8-67.7-2.9-11.2-6.5-22.2-11.7-32.7q-1.8-3.8-3.4-7.7-1.6-3.8-2.8-7.8-1.3-4-2.3-8.1-1-4.1-1.6-8.3c-2.8-15.5-0.8-30.5 7.5-43.9 5.5-8.9 8.6-17.8 8-28.1q0-0.8 0-1.5 0.1-0.8 0.2-1.5 0.1-0.8 0.2-1.5 0.2-0.7 0.3-1.4c0.3-1.4 2.8-2.5 3.9-1.8q0.8 0.5 1.5 1 0.7 0.5 1.5 1.1 0.7 0.5 1.4 1.1 0.7 0.5 1.3 1.1 5.7 5.3 11.3 10.8 5.5 5.5 10.8 11.2 5.4 5.7 10.5 11.6 5.1 5.8 10.1 11.9c20.1 25 32.8 53.7 41.2 84.5 5.9 21.7 10.2 43.6 9.3 66.2-0.5 14.4-1.6 28.8-5.1 42.8-3.6 14.4-7.4 28.7-11.9 42.7-8.4 26.6-21.3 50.7-40 71.7-20.5 23.2-42.8 44.2-69 61-2 1.3-4 2.6-6.1 3.7-0.6 0.3-1.5 0.1-4.1 0.2z"/><path class="a" d="m189 2513.4c2.2 0 4.5-0.4 6.7 0.1 10.9 2.3 21.8 4.9 32.7 7.4 19.1 4.4 38.1 8.9 57.2 13.2 8.6 1.9 17.2 3.5 23.4 10.4 7.4-2.3 7.5-10.7 13.7-14.3 1.8 1.1 4 2.1 5.6 3.7q24.1 24.2 48 48.6c5.6 5.8 10.8 12 13.1 19.9 5.6 19.8 17.7 35.6 31.5 50.3q7.3 7.7 15.2 14.8 7.9 7.2 16.4 13.6 8.5 6.4 17.5 12.1 9 5.7 18.4 10.6c48.6 25.5 98.9 47.1 151.5 63 29.8 9 60.3 15.6 90.5 23.3 4.6 1.1 9.3 2.1 14 3.4 1.3 0.3 2.3 1.5 4.2 2.9-2.2 0.7-3.2 1.4-4.3 1.4-7.2 0-14.4 0.1-21.6-0.3-19.5-1.3-39.1-2-58.5-4.4-22.2-2.6-44.3-6.2-66.3-10.3-16.8-3.1-33.4-7.7-50.2-11.5-32.1-7.4-62.2-20.4-92.1-33.9-50.1-22.5-97.7-49.5-141.3-83-39.4-30.3-75.4-64.3-104.7-104.8-6.4-8.7-12.1-17.8-18-26.9-1.7-2.6-3.8-5.3-2.6-9.3z"/><path class="a" d="m158.7 1774.4c-0.9 2.5-1.8 5.6-3.1 8.4-4.2 9.5-8.8 18.9-12.9 28.4-23.3 53.4-39 109.1-49.6 166.3q-1.7 9.1-3 18.3-1.4 9.2-2.5 18.4-1.1 9.3-2 18.5-0.8 9.3-1.4 18.5c-1.9 26.4-1.7 52.8-2 79.1-0.1 4.3 1 8.9-2.4 13.4-2-0.2-4.5 0-6.4-1q-1.5-0.7-2.9-1.5-1.4-0.8-2.8-1.7-1.4-0.9-2.7-1.9-1.4-0.9-2.7-1.9-6.5-5.4-12.4-11.3-6-5.9-11.3-12.4-5.3-6.5-10-13.5-4.7-7-8.7-14.4-1.8-3.3-3.2-6.8-1.3-3.5-2.3-7.1-1-3.6-1.5-7.3-0.5-3.8-0.5-7.5c-0.4-22.4-1-44.8 1.2-67.1 1.1-11.6 1.8-23.1 2.4-34.7 1.3-21.7 6.1-42.7 10.3-63.9q2.9-14.7 6.5-29.2 3.6-14.6 7.8-29 4.3-14.4 9.2-28.5 4.9-14.2 10.4-28.1c6.2-15.5 5.8-14.6 20.6-12.6 23 3 46 5.3 69 7.9 3.2 0.3 6.5 0.4 8.9 4.2z"/><path class="a" d="m1844.4 2149.4c0.2 4 0.5 6.4 0.4 8.7-1 18.3-1.4 36.7-3.3 55-2 19.5-6.7 38.5-12.3 57.3q-1.4 4.6-3 9.1-1.5 4.5-3.2 9-1.8 4.5-3.7 8.9-1.9 4.4-3.9 8.7-1.5 3.1-3.3 6-1.8 3-3.8 5.7-2.1 2.8-4.5 5.3-2.3 2.6-4.9 4.8-5 4.5-10.7 8.2-5.6 3.7-11.8 6.4-6.2 2.7-12.7 4.5-6.5 1.7-13.2 2.4c-20.3 2.2-40.5 4.4-60.7 6.6q-0.6 0.1-1.2 0.1-0.6 0.1-1.2 0.1-0.6 0-1.2 0-0.6 0-1.2-0.1c-2.2-0.2-3.8-1.5-3.9-3.8q0-0.9 0-1.7 0-0.9 0-1.8 0.1-0.9 0.2-1.8 0.1-0.9 0.3-1.8c2.7-14.9 5.1-29.9 8.3-44.7 4.5-20.7 9.5-41.2 14.6-61.8q0.9-4 2.3-8 1.3-4 3-7.8 1.7-3.9 3.8-7.5 2-3.7 4.3-7.2 1.4-2 2.9-3.8 1.5-1.9 3.2-3.6 1.7-1.7 3.5-3.2 1.9-1.5 3.9-2.9c12.6-8.4 25.9-15.7 40.3-20.8q31.6-11.3 63.2-22.3c2.6-0.9 5.3-1.3 9.5-2.2z"/><path class="a" d="m1751.8 1477.2c1.2 2.2 2.9 4.5 3.6 7 6.7 22.3 16.8 43.1 27.4 63.7 7.8 15.1 9.7 31.2 9.2 47.7q-0.1 2.6-0.6 5.1-0.5 2.5-1.3 4.9-0.9 2.4-2.1 4.7-1.3 2.2-2.8 4.2c-1.5 1.9-2.9 3.8-4 5.4 0.5 3.2 2.5 3.5 4.5 3.5 3.6 0.1 7.6 0.5 10.1-2.5 3.7-4.2 6.9-8.8 10.1-13.3 1.6-2.2 2.8-4.6 4.6-7.6 2.4 2.1 4.3 3.4 5.7 5.2 15.9 21.1 25.7 44.9 30.7 70.8 5.4 28.4 1 55.7-8.4 82.5-5.6 16-15.1 29.9-26.5 42.4-1.7 2-4.2 3.2-6.6 4.9-3.8-3.9-3.9-8.5-5-12.5-4.2-15-7.6-30.3-12.5-45q-4.1-12.3-8.8-24.3-4.8-12-10.1-23.7-5.3-11.7-11.3-23.2-6-11.4-12.5-22.5c-4.4-7.6-8.9-15.3-14.6-21.9-16.6-19.2-19-41.6-15.9-65.4q0.5-3.6 1.2-7.1 0.7-3.5 1.7-7 1-3.4 2.2-6.8 1.2-3.4 2.6-6.7c8-18.3 15.6-36.8 23.4-55.2 1.2-2.7 1.4-6.4 6-7.3z"/><path class="a" d="m758.1 1295c-9.4 4.6-13.2 14.7-22.2 19.1-1.3-1.1-2.8-2-3.6-3.2-11.4-17.1-21-35-24.9-55.4-3.6-18.8-2.9-37.4 4.2-55.4 1.6-4.1 2.9-8.3 5-12.2 8-15.2 11.1-31.6 13-48.3q0.1-0.9 0.3-1.8 0.1-0.9 0.3-1.7 0.2-0.9 0.4-1.8 0.2-0.9 0.5-1.7c0.1-0.7 1-1.1 1.8-1.9 4.1-0.7 7.3 2.2 10.6 4.1 21.4 12.4 39 29 55 47.7q2.9 3.3 5.5 6.8 2.6 3.4 5 7.1 2.4 3.6 4.5 7.4 2.2 3.8 4 7.7c3.5 7.6 7.4 15.1 11 22.6 10.8 22.3 16.5 45.8 18.4 70.3q0.1 1.5 0.1 3 0 1.5-0.1 3-0.1 1.5-0.3 3-0.1 1.5-0.4 2.9c-1.3 9.4-6.3 16.3-14.5 20.9-14.5 8-29.9 13.4-45.6 18.1q-0.6 0.1-1.2 0.2-0.6 0.2-1.2 0.3-0.6 0.1-1.2 0.1-0.6 0.1-1.1 0.1c-4.3 0.3-6.9-1.2-8.1-5.5-1.9-7-3.3-14-5.1-21-2.3-9.3-4.6-18.6-7.1-27.9-0.6-2.1-1.9-4.1-3-6.6z"/><path class="a" d="m530.3 1589.5c-3.8-3-3.8-7.1-4.2-11-4.7-45-7.2-90-4.9-135.2 1.4-27.1 8.9-52.8 20.6-77.1 2.4-5 5.8-9.5 9-14.1 1.1-1.5 3-2.4 5-4 2.6 2.6 5 4.6 6.9 7 10.1 12.4 20.5 24.6 30 37.4 8.6 11.5 16.3 23.7 24.4 35.6q2.3 3.5 4.2 7.3 1.9 3.7 3.3 7.7 1.5 3.9 2.5 8 0.9 4.1 1.4 8.3c3.2 24.3 0.3 47.8-9.7 70.3-8 18.2-21.6 31.4-38.4 41.6-14.5 8.8-30.4 14-46.7 18.2q-0.4 0-0.9 0.1-0.4 0-0.8 0-0.4 0-0.8 0-0.5-0.1-0.9-0.1z"/><path class="a" d="m893.1 1299.3c-4.4-2.2-7.2-3.5-10-4.9-19.6-9.6-31.3-24.4-31.3-47 0-11.2-0.1-22.4 0.3-33.6 0.6-14.5-1.1-28.7-3.9-42.8-3.8-18.9-7.8-37.6-11.6-56.4-0.5-2.2-0.1-4.6-0.1-6.7 4.7-1 7.3 2 10.1 4q27.2 18.8 54.1 37.8c3.6 2.5 7.2 5 10.8 7.6 2.9 2.2 6 4.2 8.4 6.7 18.7 19.4 33.1 41.2 37.7 68.3 5.6 32.8-1.5 62.9-21.4 89.5-7.2 9.6-17.1 16.8-27.3 23.2-12.3 7.7-25.4 13.7-39.7 16.5-5.7 1.1-8.5-0.7-9.5-6.2-2.2-12.7 1.5-23.8 10.2-33 5.2-5.5 11.3-10.2 16.8-15.4 1.9-2 3.5-4.2 6.4-7.6z"/><path class="a" d="m832.9 924.6q-2.3 3.7-5 7.3-2.7 3.5-5.7 6.8-3 3.2-6.3 6.1-3.3 2.9-6.9 5.5-2.5 1.7-5 3.3-2.5 1.6-5.1 3.2-2.6 1.5-5.2 2.8-2.7 1.4-5.4 2.7c-11.6 5.7-24.2 5.6-36.4 3.4-19.7-3.6-36.9-12.3-50.9-27.2-26.7-28.4-43.5-61.8-52-99.7q-0.2-1.1-0.4-2.3c-0.8-5.3 1.4-7.7 6.6-7 10.3 1.4 20.5 3.3 30.8 4.6 8.7 1 17.4 1.5 26.2 2.3 6.7 0.6 13.5 1.2 20.2 2q4.3 0.5 8.5 1.8 4.2 1.4 8 3.4 3.8 2.1 7.2 4.8 3.4 2.8 6.2 6.1c2.9 3.3 6 6.5 8.7 9.9 15 18.3 32.8 33.8 50.8 49.1 3.6 3.1 7.6 5.9 11.1 11.1z"/><path class="a" d="m730.8 1341.5c8.8-2.3 13.2-9.8 21.5-11.5 0.7 1.6 1.8 2.9 2 4.3 1.8 13.9 2.6 27.7 0.4 41.7-2.7 16.6-5.4 33.1-12 48.8-7.8 18.6-18.1 35.6-32.2 50.1-5.9 6-11.7 12.1-17.9 17.8q-4.4 4-9.2 7.6-4.9 3.5-10.1 6.6-5.1 3-10.6 5.5-5.4 2.5-11.1 4.4-0.5 0.2-1.1 0.3-0.5 0.1-1 0.2-0.5 0.1-1 0.2-0.5 0.1-1 0.1c-3.1-1.6-3.2-4-3-6.4 1.4-27.3 10.7-51.4 28.5-72.2 14.4-16.8 23.7-36 26.8-58 3-21.3 2-42.4-4.7-62.9-4.6-14.2-13.5-26.2-23.7-37.1-6.3-6.8-13.2-12.7-21.7-16.7q-2.6-1.2-5.3-2.2-2.6-0.9-5.4-1.6-2.8-0.7-5.6-1.1-2.8-0.4-5.6-0.5c-7.4-0.5-13.2 2.3-18.3 7.3-5.1 4.9-5.4 10.6-3.3 16.6q0.6 2 1.8 3.8 1.3 1.7 3 3 1.7 1.2 3.7 1.9 2 0.7 4.2 0.7c5.1 0.2 10.3-0.5 15.4-1 2.4-0.2 4.8-0.9 7.1-1q1.2 0 2.4 0.4 1.1 0.3 2.1 1.1 1 0.7 1.6 1.8 0.7 1 0.9 2.2c1.6 6.1-0.1 11.3-5.2 14.7q-1 0.6-2.1 1.2-1 0.6-2.1 1.1-1.1 0.6-2.2 1-1.1 0.5-2.2 0.8c-8.1 2.9-16.5 3.3-24.9 2.5-10.5-1-17.6-7.3-22.5-16q-1.6-2.7-2.7-5.7-1.1-2.9-1.9-6-0.7-3.1-1-6.2-0.3-3.2-0.2-6.3 0-3.3 0.7-6.5 0.8-3.3 2.3-6.2 1.5-3 3.6-5.5 2.2-2.5 4.8-4.5c17.8-13.8 37.3-15.4 57.9-8.2q7.6 2.6 14.9 6.3 7.2 3.7 13.8 8.4 6.6 4.8 12.4 10.4 5.9 5.6 10.9 12c4.8 6.3 8.6 13.5 12 20.7 4.5 9.8 8.1 20 12.2 30 0.9 2.5 2.3 4.8 3.9 7.8z"/><path class="a" d="m635.2 2513.4c3.4 2 5.9 3.1 8 4.7q22.2 17.4 44.3 35c10 8 16.5 18.4 20.3 30.5q0.8 2.5 1.3 5.2 0.5 2.6 0.7 5.3 0.2 2.7 0 5.4-0.1 2.7-0.6 5.3-1.9 11.6-3.1 23.2-1.1 11.6-1.6 23.3-0.4 11.7-0.2 23.4 0.3 11.6 1.3 23.3 0.7 7.5 1.6 14.9 0.9 7.4 2 14.8 1.1 7.4 2.5 14.8 1.4 7.4 3.1 14.7c0.4 1.9 0.5 3.9 0.7 5.5-3 3.5-6.3 2.1-9.1 1.1q-4.6-1.5-9-3.5-4.4-1.9-8.6-4.2-4.2-2.2-8.2-4.9-4.1-2.6-7.8-5.6c-20.7-16.5-35.3-36.9-40.3-63.4-0.4-2.3-1.2-4.7-1.2-7q0.1-23.4 0.5-46.8c0-1.4 1-2.9 1.9-5q0.8 0.3 1.7 0.6 0.8 0.3 1.7 0.6 0.8 0.3 1.6 0.7 0.8 0.3 1.7 0.7c3.8 2 7.4 4.7 11.4 6.5 5.2 2.3 8.4 0.4 11.8-6.8-2.7-1.5-5.3-3.1-8.1-4.6q-1.8-1-3.5-2.2-1.7-1.3-3.2-2.8-1.4-1.5-2.7-3.2-1.2-1.7-2.2-3.6-1.8-3.4-3.3-7-1.4-3.6-2.4-7.4-1-3.8-1.6-7.6-0.5-3.9-0.5-7.8c-0.2-7.2 0.1-14.4-0.1-21.6-0.4-10-1.2-19.9-1.7-29.9-0.2-3.2-0.5-6.4-0.5-9.6 0-1.1 0.6-2.3 1.4-5z"/><path class="a" d="m1228.3 2501.4c-0.4 4.4-0.4 7.2-1 9.8-2.1 7.8-2 15.8-2 23.8 0 11.6 0 23.2-0.6 34.8q-0.1 2.5-0.4 5-0.3 2.5-0.7 5-0.4 2.5-0.9 5-0.6 2.5-1.3 4.9c-2.7 9.6-7.6 17.7-18.4 20.3-2.3 0.5-4.7 1.6-4.9 4.5-0.1 2.1 3 4.4 6.1 4.9q1.6 0.3 3.3 0.2 1.7 0 3.3-0.3 1.6-0.3 3.1-0.9 1.6-0.7 2.9-1.5c3-1.9 6.1-3.6 9.9-5.8 1.3 2.8 2.8 4.7 3.2 6.8 8.6 45.2-4.9 93.1-51.2 122.4-7.8 5-15.8 9.4-24.6 12.3-2.1 0.7-4.5 0.8-7.6 1.3-0.1-3-0.6-5.3-0.2-7.5 1.3-6.7 2.7-13.3 4.3-19.9 4.3-18 6.8-36.1 6.3-54.6-0.4-12 0-24 0.2-36 0.2-11.3-0.6-22.6-3.4-33.4-5.7-21.6 1.9-39.3 15.2-55.4q1.8-2 3.6-4 1.9-1.9 3.8-3.8 2-1.8 4.1-3.6 2-1.7 4.2-3.3c12.7-9.8 25.7-19.1 38.6-28.5 0.8-0.7 2-1 5.1-2.5z"/><path class="a" d="m672 635.2c1.8 0.8 2.3 0.9 2.5 1.1 7 9.5 16.2 15.8 27.1 20.9 15.2 7 24.8 19.5 27.4 36.8 1.4 9.2 2.8 18.4 1 27.4-3.3 17.3-1.2 34.2 2.1 51.2 2.7 13.7 4.9 27.5 7.2 41.3q0.1 0.4 0.1 0.9 0.1 0.4 0.1 0.9 0 0.4 0 0.9 0 0.4-0.1 0.9c-0.2 2.1-1.3 3.9-3.5 4.1q-1.4 0.2-2.7 0.3-1.3 0.1-2.7 0.2-1.3 0-2.7 0-1.3 0-2.6-0.1c-11.6-1.2-23-2.4-34.5-4.1-29.9-4.6-38.7-15.4-44.5-42.4-4.2-19.7-3.9-39.8-2.1-59.7 0.8-9.2 2.4-18.3 4.1-27.3 3.1-16.2 9.4-31.3 17.8-45.5 1.7-2.7 3.8-5 6-7.8z"/><path class="a" d="m201.1 1799.6c1.9 2.2 4.1 4 5.3 6.3 5.4 10.5 8.1 21.5 6.7 33.5q-0.3 3.3-0.9 6.5-0.6 3.3-1.5 6.4-0.8 3.2-1.8 6.4-1.1 3.1-2.3 6.1c-12.7 31.5-25.4 63-36 95.3q-3.3 10.1-6.1 20.4-2.8 10.3-5.2 20.6-2.3 10.4-4.2 20.9-1.8 10.5-3.2 21c-2.3 17.8-4.6 35.7-5.8 53.6-0.9 14.3-0.4 28.7-0.2 43.1 0.3 18.8 0.9 37.5 1.3 56.3q0 0.7-0.1 1.5 0 0.7-0.2 1.5-0.1 0.7-0.3 1.4-0.2 0.7-0.4 1.4c-0.5 1.8-3.4 2.7-5.1 1.7q-0.4-0.2-0.7-0.4-0.4-0.2-0.8-0.5-0.3-0.3-0.7-0.5-0.3-0.3-0.6-0.6c-2.4-2.7-4.8-5.4-7-8.3-12.6-16.1-13.2-17.8-13.4-38.3-0.1-15.6-0.4-31.2-0.3-46.7q0-21.2 1.4-42.3 1.5-21 4.2-42 2.8-20.9 7-41.6 4.1-20.7 9.6-41.1c8-29.8 19.7-58.4 31.9-86.6 6.4-15 13.8-29.7 20.9-44.5 1.9-3.8 3.7-8 8.5-10.5z"/><path class="a" d="m1744.8 2381.6c-0.5 3.4-0.5 5.4-1 7.3q-1.5 4.7-3.1 9.3-1.7 4.7-3.7 9.2-2 4.5-4.2 8.9-2.2 4.4-4.7 8.7c-15.4 25.7-36.3 46.4-57.7 66.9-19.4 18.7-42.5 30.8-67 41q-3.7 1.6-7.6 2.7-3.9 1.1-7.9 1.8-3.9 0.8-8 1.1-4 0.2-8.1 0.1c-2.3 0-4.6-0.8-7.7-1.3 0.6-2.6 0.7-5.1 1.8-6.8 4.7-7.4 9.7-14.7 14.7-21.9q28.2-40.9 56.5-81.8c3.1-4.6 6.1-9.4 9.1-14.1 10.5-17 26-26.7 45.3-30.5 14.6-2.8 29.4-3.1 44.2-2.5 2.6 0.2 5.3 1.1 9.1 1.9z"/><path class="a" d="m635 1542.9c2.5-4.6 7-5.6 10.7-7.6 12.3-6.7 25-12.6 36.7-20.1 35.1-22.5 60.1-53.3 74.2-92.7 2.4-6.8 4.3-13.7 7-20.4q0.9-2.1 1.8-4.1 0.9-2.1 1.9-4.1 1-2 2-3.9 1.1-2 2.3-3.9c6.3-10.3 16-15.9 27.8-16.3q4.5-0.2 8.9-0.5 4.5-0.3 9-0.8 4.4-0.5 8.8-1.2 4.5-0.7 8.9-1.6c5.7-1.2 7.7 0.9 8.1 7.2 0.6 10.5-1.3 20.7-3.3 30.9-5 25.1-18.4 45.7-34.7 64.7-35.1 41-80.9 62.5-133.1 72.2-12.2 2.2-24.4 2.1-37 2.2z"/><path class="a" d="m745.1 493c4.9 2.1 6.8 5.8 9.2 8.9q16.5 21.3 32.7 42.9c2.9 3.8 5.5 7.8 8.1 11.8q0.4 0.8 0.9 1.6 0.4 0.7 0.9 1.5 0.4 0.8 0.8 1.6 0.4 0.9 0.7 1.7c4.1 10 2.3 18.7-5.8 25.9-7.5 6.7-15 13.1-22.7 19.5-12.9 10.9-23.9 23.5-34.8 36.3-2.3 2.7-4.8 5.2-7.5 8.2-2.6-1.2-5-1.7-6.7-3.1-6.1-5.2-12.3-10.2-17.7-16-8.8-9.4-12.8-21-14.2-33.6-2.9-25.4 3.7-48.3 18.4-69 7.2-10.1 14.8-19.8 24-28.2 4.1-3.7 8-7.7 13.7-10z"/><path class="a" d="m799.1 2046.9q-4.1 2.7-8 5.8-3.8 3.1-7.4 6.5-3.7 3.3-7 7-3.3 3.6-6.3 7.5c-4.5 6-10.1 7.6-16.9 6.2-4.6-0.9-8.2-3.3-9.1-8.3-0.8-4.3 0.6-7.8 4.5-10.2q0.7-0.5 1.3-0.9 0.6-0.5 1.2-1 0.7-0.4 1.3-0.9 0.6-0.5 1.2-1c-1.3-2.2-1.9-4.2-3.3-5.4q-1.7-1.7-3.6-3.1-2-1.4-4.2-2.4-2.2-0.9-4.5-1.5-2.4-0.6-4.8-0.7c-5.6-0.2-11.2 0-16.8-0.2-13-0.6-20.5 6.6-26.4 17.3 1.7 2.1 3.2 4 4.7 5.7 2 2.5 4.3 4.8 6.1 7.4 7.5 10.8 7 17.9-1.7 28-2.6 3.1-5.2 6-7.7 9.2q-0.7 0.8-1.1 1.8-0.4 0.9-0.6 2-0.2 1-0.1 2.1 0.1 1 0.5 2c1.3 4.1 3.3 6.5 9.4 10.8 9.2-5 15.9-14.1 25.7-19 8.7 4.3 12.1 14 20.2 19.5 1.9-1.3 4-2.3 5.5-4 3-3.3 5.4-7 8.3-10.3q0.7-0.7 1.5-1.4 0.8-0.7 1.6-1.4 0.8-0.6 1.6-1.2 0.9-0.6 1.8-1.1c1.9-1.2 5 0.3 6 2.3q0.5 1.1 0.8 2.3 0.3 1.2 0.4 2.4 0.1 1.2-0.1 2.4-0.2 1.1-0.6 2.3-1 3.4-2.4 6.7-1.4 3.3-3.2 6.5-1.8 3.1-3.9 6.1-2.1 2.9-4.5 5.6-0.6 0.6-1.3 1.2-0.6 0.6-1.4 1.1-0.7 0.6-1.4 1.1-0.8 0.4-1.6 0.9c-4.5 2.7-9.2 2.6-13.4-0.8-3.1-2.5-5.8-5.5-8.7-8.2-2-1.9-4-3.7-6.4-5.9-3 2-5.6 3.7-8 5.6-2.5 1.9-4.9 4.2-7.4 6.1-7.9 6.2-11 6.5-19.2 0.5q-3.7-2.8-7-6.1-3.3-3.3-6-7.1-2.7-3.8-4.8-7.9-2.1-4.2-3.5-8.6c-2.2-6.8-1.1-12.4 4.5-17.3 4.5-3.9 8.6-8.2 12.7-12.2-0.1-6.4-3.8-10.1-7.3-13.9q-0.7-0.7-1.5-1.4-0.8-0.7-1.6-1.4-0.8-0.7-1.6-1.4-0.8-0.6-1.6-1.3c-4.9-4.1-5.8-6.1-3.4-11.3 6.3-14.3 16.2-25.6 30.4-32.6q1.2-0.6 2.5-1 1.3-0.5 2.6-0.9 1.3-0.3 2.6-0.5 1.3-0.2 2.7-0.3c15.1-0.7 30.4-1.9 44.7 5.1q0.4 0.2 0.8 0.3 0.4 0.1 0.8 0.2 0.4 0.1 0.8 0.2 0.4 0 0.8 0.1c2.6-1.1 2.8-3.1 2.6-5.1-0.6-5.1-1.5-10.2-2.1-15.4-0.3-2-0.6-4.1 0.1-5.9 0.7-1.7 2.2-3.6 3.8-4q0.7-0.1 1.4 0 0.7 0.1 1.4 0.3 0.7 0.2 1.3 0.6 0.6 0.4 1.1 0.8 0.7 0.8 1.3 1.7 0.6 0.8 1.2 1.7 0.5 0.9 0.9 1.8 0.5 1 0.8 2c2 6.1 3.5 12.3 5.2 18.4 0.6 2.2 1.4 4.4 1.9 6.2 4 1.8 6-0.6 8.1-2.2 11.5-8.7 12.8-8.1 24.5-0.9 10.6 6.4 20.9 13.4 31.4 20 5.2 3.2 7.9 7.4 7.9 13.7-0.2 25.6-0.1 51.2-0.1 76.8q0 0.6 0 1.2c-0.9 11.4-6.3 14.9-16.7 10.6q-0.7-0.2-1.4-0.6-0.7-0.3-1.4-0.6-0.6-0.4-1.3-0.7-0.6-0.4-1.3-0.8c-9-5.9-11.7-14.1-5.1-22.4 7.5-9.3 8.7-19.3 8.2-30.3-0.3-7.5-0.2-15.2 0-22.7 0.2-5.8-1.8-10.1-6.9-12.9-8.3-4.8-16.5-9.9-25-15z"/><path class="a" d="m464.4 2090.2c-1-4.9-4.8-7-7.2-10-4.1-5-8.6-9.6-12.2-14.8-4.1-6-3.3-9.9 2.2-14.6q0.8-0.7 1.6-1.4 0.8-0.6 1.7-1.2 0.9-0.6 1.8-1.1 0.9-0.6 1.8-1.1c12.1-6.2 24.3-12.1 36.4-18.3q2.1-1.2 4.4-1.8 2.4-0.7 4.8-0.7 2.4-0.1 4.7 0.4 2.4 0.5 4.5 1.5c5.9 2.7 11.9 4.9 17.7 7.6 13.7 6.3 11.1 6.4 25.5-0.3 5.5-2.6 11-4.8 16.5-7.3 5.9-2.8 11.6-2.8 17.2 0.6q19 11.3 38.1 22.7 1.2 0.7 2.1 1.6 1 1 1.7 2.2 0.6 1.2 1 2.5 0.3 1.3 0.3 2.7c0.1 1.6 0.2 3.2 0.2 4.8q0 37.2 0 74.4 0 1 0 2.1-0.1 1-0.2 2.1 0 1-0.2 2.1-0.1 1-0.3 2c-1.2 6-5.4 9-11.4 7.5q-1.5-0.4-2.9-0.9-1.4-0.5-2.8-1.1-1.3-0.6-2.6-1.3-1.3-0.7-2.6-1.5c-8.4-5.7-10.6-13.7-4.3-21.6 7.4-9.3 8.7-19.3 8.2-30.3-0.3-8.8-0.2-17.6-0.1-26.4 0.2-5.5-2.3-9-7-11.4q-10.2-5.2-20.1-10.8c-5-2.8-9.8-2.8-14.9-0.3-7.2 3.5-14.5 6.6-21.7 10q-1.8 0.9-3.7 1.4-1.9 0.4-3.8 0.4-2 0-3.8-0.5-1.9-0.4-3.6-1.4c-8.3-4.1-16.7-7.7-25-11.7q-1.5-0.8-3.1-1.2-1.6-0.4-3.2-0.4-1.7 0.1-3.3 0.5-1.6 0.4-3 1.2c-8.5 4.3-17.2 8.3-26.5 12.8 1.2 2.6 1.8 5 3.2 6.6 2.7 3.4 5.9 6.5 8.9 9.7 7.8 8.4 8.1 15.5 0.9 24.5-2.5 3.1-5.5 5.8-8.1 8.9-2 2.3-3.8 5-6.1 7.8 6.7 10.7 14.4 18.6 27.9 17.7 5.6-0.3 11.2-0.1 16.8-0.1 8.3 0 14.4-4.2 19.6-10.2 3.6-4.1 3.2-9.1-1-12.7q-0.9-0.6-1.7-1.2-0.9-0.6-1.8-1.2-0.9-0.5-1.8-1-0.9-0.5-1.8-1c-2-1.2-4.2-2-6.4-3.1 0.1-1.6-0.2-2.9 0.3-3.8 4.8-8.3 16.9-22.8 22.9-27.7q0.4 0.1 0.8 0.2 0.4 0.1 0.8 0.2 0.4 0.1 0.8 0.2 0.4 0.2 0.8 0.3c5.9 3.5 11.6 7 18.3 8.9 3.7 1 4.8 4 3.9 7.6-1.9 7.1-6.6 10-13.4 8.1-2.7-0.7-5.3-1.9-8-2.6-1-0.2-2.1 0.4-4 0.8q0.3 0.5 0.6 1.1 0.4 0.5 0.7 1 0.4 0.6 0.8 1.1 0.3 0.5 0.7 1c1.8 2.1 4 4 5.7 6.2 4.6 6.1 6 12.8 3.2 20.3-2.5 7-6.4 13-12.5 17.2-9 6.2-18.8 10.6-30.1 10.3-6.8-0.2-13.6 0.1-20.4-0.1-3.5-0.2-7.3-0.4-10.5-1.8-14.8-6.4-26.1-16.8-33-31.6-2.5-5.4-2-9.9 2.6-13.9 4.7-4.1 8.9-8.1 13.2-12.3q0.6-0.6 1.1-1.3 0.6-0.6 1.1-1.2 0.6-0.7 1.1-1.3 0.5-0.7 1-1.3z"/><path class="a" d="m389.3 2069.5c-0.1-35.5 0.2-71.1-0.2-106.7-0.1-10.2 2.4-18.6 8.9-26.4q2.8-3.5 5.8-6.9 3-3.3 6.1-6.5 3.2-3.2 6.5-6.3 3.2-3.1 6.7-6 1.6-1.5 3.6-2.7 1.9-1.1 4-1.9 2.1-0.8 4.3-1.2 2.2-0.4 4.5-0.3c16 0.2 32 0.1 48 0 4.5 0 8.6 0.8 12.4 3.6q3.2 2.2 6.2 4.7 3 2.4 5.9 5 2.9 2.6 5.6 5.4 2.7 2.8 5.3 5.8c2.9 3.3 5.4 7 6 11.5 0.6 4-1 7.5-4.3 9.1q-1 0.6-2.2 0.8-1.2 0.2-2.4 0-1.2-0.1-2.3-0.6-1.1-0.5-2-1.4-0.7-0.6-1.3-1.2-0.7-0.6-1.3-1.2-0.7-0.7-1.3-1.3-0.6-0.7-1.2-1.3c-2.2-2.3-4.4-4.7-6.7-6.9-12.3-12.1-12.4-12.1-29.5-12.1-10 0-20 0.2-30-0.1-6-0.2-11 1.5-15.1 5.8q-8.8 9-17.3 18.2-0.9 1-1.6 2.2-0.7 1.1-1.1 2.4-0.5 1.3-0.7 2.6-0.2 1.4-0.1 2.7c0 3.2-0.1 6.4-0.1 9.6q0 102.5 0 205c0 16.4 0.2 17 11.2 28.8q1.7 1.8 3.4 3.4c11.3 10.9 11.8 11.2 27.5 11.2 10.4 0 20.7-0.3 31.1 0.1q2.3 0.1 4.5-0.2 2.2-0.4 4.3-1.2 2.1-0.8 3.9-2 1.9-1.3 3.5-2.9c4.2-4.3 8.5-8.4 12.7-12.6 1.7-1.7 3.3-3.6 5.1-5.1 3.3-2.7 6.9-2.9 10-0.8q1.2 0.8 2 1.9 0.9 1 1.3 2.3 0.5 1.3 0.5 2.7 0 1.3-0.4 2.6-0.3 1-0.7 2-0.4 1-0.9 1.9-0.4 0.9-0.9 1.8-0.6 0.9-1.2 1.8-2.8 3.7-5.9 7.2-3.1 3.4-6.5 6.6-3.4 3.1-7.1 5.9-3.7 2.9-7.6 5.4-1.1 0.6-2.2 1-1.1 0.5-2.2 0.8-1.1 0.3-2.3 0.5-1.2 0.1-2.4 0.1c-17.2 0.2-34.4 0.1-51.6 0.2q-1.8 0-3.5-0.3-1.8-0.4-3.5-1-1.7-0.6-3.2-1.5-1.6-0.9-2.9-2.1-4.2-3.4-8.2-7.1-3.9-3.7-7.7-7.6-3.7-3.9-7.1-8-3.5-4.2-6.7-8.5-1.4-1.8-2.4-3.8-1-2-1.7-4.1-0.7-2.2-1.1-4.4-0.3-2.2-0.3-4.4c0.2-10.4 0-20.8 0-31.2z"/><path class="a" d="m1689.1 1647.9c4 1.1 4.8 5 6.4 8.1q4.6 9.3 9 18.6 4.4 9.4 8.5 18.9 4.2 9.5 8 19.1 3.9 9.5 7.6 19.2c16.9 45.2 27.1 92 32.1 139.9 1.2 11.6 2.5 23 3.7 34.6q0.1 1 0.2 2.1 0.1 1 0.1 2.1 0 1 0 2.1-0.1 1-0.2 2.1c-0.4 2.2-1.3 5-3 6.2-7.8 5.5-15.8 10.6-25.6 14.3-1-2.4-2.4-4.4-2.6-6.6-1-10.3-1.6-20.7-2.4-31-3-38-8.6-75.5-18.5-112.3-8.2-30.6-19.9-59.9-33.2-88.6-1-2.2-2.4-4.3-3-6.6-0.7-2.6-1.6-5.7-0.8-8.1 3.6-11 7.7-21.8 11.8-32.6 0.3-0.7 1.2-1 1.9-1.5z"/><path class="a" d="m1186.9 1513.8c-4.3 5-8.6 6.2-12.5 8-23.6 10.7-47.3 21.4-71.1 31.8-31.2 13.6-62.6 26.6-93.5 40.5-28.1 12.7-55 27.9-81.1 44.1-51.7 32.2-101.3 67.3-147.1 107.4-21.7 19-42.1 39.2-63.1 59-26.9 25.3-51 53-74.6 81.2-10.3 12.3-20.1 24.9-30.1 37.4-1.5 1.8-3.2 3.4-4.6 4.9q-1.4 0.2-2.8 0-1.4-0.2-2.6-0.8-1.3-0.6-2.3-1.6-1.1-0.9-1.8-2.1c0-0.9-0.4-1.9-0.1-2.4q0.7-1.1 1.5-2.2 0.7-1.1 1.5-2.2 0.8-1.1 1.6-2.2 0.8-1 1.7-2.1 26.8-31.5 53.8-62.9c4.1-4.8 8.4-9.6 12.9-14.2 32.9-32.7 65.7-65.5 98.9-97.9 46-44.9 97.7-82.2 153.4-114.4 42.8-24.6 87.8-44.2 133.7-62 38.3-14.9 77-29.2 115.4-43.8q1.6-0.6 3.2-1.2 1.5-0.5 3.2-0.9 1.6-0.5 3.2-0.8 1.6-0.3 3.3-0.6z"/><path class="a" d="m781.1 2183.9c0 17-8.9 30.1-24 35.5q-2.5 1-5.1 1.7-2.6 0.7-5.2 1.2-2.7 0.5-5.4 0.8-2.6 0.3-5.3 0.3c-27.5-0.1-49.7-10.5-63.5-35.4q-0.7-1.2-1.3-2.4-0.5-1.2-1.1-2.5-0.5-1.2-0.9-2.5-0.4-1.2-0.8-2.5-0.4-1.7-0.3-3.3 0.2-1.7 0.9-3.2 0.7-1.5 1.8-2.7 1.2-1.2 2.7-1.9 1.5-0.7 3.1-0.9 1.7-0.2 3.3 0.1 1.6 0.4 3 1.3 1.5 0.8 2.5 2.1c1.8 2.1 3 4.7 4.7 7 4.1 5.3 7.7 11.3 12.7 15.7 13 11.4 28.2 14.2 44.8 9.5q2.3-0.6 4.4-1.7 2.2-1.1 4-2.7 1.8-1.6 3.3-3.5 1.4-1.9 2.4-4.1c1.6-3.3 0.7-6.2-2.6-8.1-1.3-0.8-3-1.2-4.3-2.1q-1.5-0.9-2.6-2.4-1.1-1.4-1.7-3.1-0.5-1.7-0.5-3.5 0.1-1.8 0.8-3.5c1.3-3.7 4.7-5.8 9.5-5.7 9.9 0.1 17.7 6.2 19.9 15.8q0.2 0.9 0.3 1.7 0.1 0.8 0.2 1.6 0.1 0.9 0.2 1.7 0 0.8 0.1 1.7z"/><path class="a" d="m549.2 2006.5c-0.1-11.8 1.5-22 3-32.2q0.1-0.9 0.4-1.7 0.3-0.9 0.6-1.7 0.4-0.8 0.9-1.6 0.5-0.7 1.1-1.4c4.8-5.3 9.9-10.4 15-15.5q0.7-0.8 1.6-1.3 1-0.5 2-0.6 1.1-0.2 2.1 0 1.1 0.2 2 0.7 0.8 0.4 1.6 0.8 0.8 0.4 1.6 0.8 0.8 0.4 1.6 0.9 0.7 0.5 1.5 1c10 7.3 8.9 8.8 4.6 17.6-2.5 5-4.4 10.4-6.9 15.3-1.3 2.3-3.2 4.8-5.5 6-8.4 4.4-17.1 8.2-27.2 12.9z"/><path class="a" d="m585.2 1929.4q0.3 0 0.5 0 0.3 0.1 0.5 0.1 0.3 0 0.5 0.1 0.3 0.1 0.5 0.2c5.9 4 11.8 7.8 17.5 12 2.1 1.5 1.8 5 0 7.5-1.5 2.1-3.8 3.5-6.1 2.1-6-3.7-11.9-7.6-17.6-11.7-2.1-1.6-2-4.4-0.4-6.4q0.5-0.5 1.1-1 0.5-0.6 1.1-1.1 0.6-0.5 1.2-0.9 0.6-0.5 1.2-0.9z"/><path class="a" d="m1036.3 2093.2c-14.3-9.1-29.1-11.8-41.3-7.7-18 6-21.2 18.2-13.6 35.1 1.4 3 4.7 5.3 7.4 7.7 5.4 4.7 6.7 10.7 5.4 17.4-1.2 6.3-5.9 9.6-12.2 8.8-12.6-1.7-21.7-11.4-22.2-24.3-0.4-9.2 0-18.4-0.2-27.6-0.2-12 5.5-20.6 15-27.1q2.1-1.5 4.3-2.7 2.3-1.2 4.6-2.2 2.4-1 4.8-1.8 2.5-0.7 5-1.2c5.8-1.1 11.7-1.9 18.5-2.9l-8.5-4.5c3.6-9.7 17.1-28.6 24.3-34.2l24.8 13c1.5 4-0.5 7.8-3.5 11.2q-0.8 0.9-1.8 1.6-1 0.7-2.1 1.1-1.2 0.4-2.4 0.4-1.2 0.1-2.4-0.1c-3.1-0.6-6.1-1.5-9.3-2.3-1.2 3 1.3 3.5 2.6 4.3 6 3.7 10.6 8.4 12.7 15.4 0.8 2.5 2.7 4.8 4.3 7.1 1.3 2 3 3.7 4.3 5.7 3.8 5.9 4.3 11.9 0.9 18.2-2.3 4.1-4.7 8.3-7 12.3 3.2 9.4 9.8 14.9 17.6 19.3q0.8 0.4 1.6 0.7 0.9 0.3 1.7 0.5 0.9 0.2 1.8 0.3 0.9 0.1 1.8 0.1c4.8 0.3 9.6 0 14.4 0.2 7.1 0.4 12.3-2.8 16.5-8.1 4-5.1 7-10.8 7.2-17.5 0.2-10 0-20 0-30q0.1-1.6-0.3-3.2-0.3-1.6-1.1-3.1-0.7-1.5-1.8-2.8-1-1.2-2.3-2.2c-5.4-4.2-4.9-8.6 0.7-12.6 13-9.3 26.3-18.3 39.4-27.5 5.2-3.7 10.3-3.4 15.6-0.2 5.3 3.3 11.1 6.5 16.5 9.8 7.2 4.5 14.1 9.2 21.3 13.6 5 3 6.9 7.1 6.8 12.9-0.2 18.8 0 37.6 0 56.4q0 10.2 0 20.4 0 0.9 0 1.8 0 0.9-0.1 1.8-0.1 0.9-0.2 1.8-0.1 0.9-0.3 1.7-0.2 1.5-1 2.8-0.8 1.3-2 2.3-1.2 0.9-2.7 1.2-1.5 0.4-3 0.2-2.4-0.2-4.7-0.8-2.3-0.6-4.5-1.7-2.2-1-4.1-2.5-1.9-1.4-3.6-3.2c-3.9-4.1-4.6-9.3-2.5-14.5q0.6-1.2 1.2-2.4 0.6-1.2 1.3-2.3 0.7-1.2 1.5-2.3 0.7-1.1 1.6-2.1c2.9-4 5-8.1 5-13.2q0-18 0-36c0-3.3-0.6-6.4-3.7-8.4-10.1-6.3-20-13-31-18.2-8.8 5-16 11.2-23.1 17 0.1 13 0.4 25.4 0.5 37.7q0 3-0.2 6-0.2 3-0.6 6-0.5 3-1.2 5.9-0.7 2.9-1.6 5.8c-3.5 10.8-10.5 18.7-20.1 24.4-13.8 8-40.7 7.8-54.1-1q-2.4-1.6-4.7-3.3-2.2-1.7-4.4-3.5-2.2-1.8-4.3-3.7-2.1-1.9-4.2-3.9c-3-3-5.2-7-7.1-10.9-2.6-5.3-2.6-10.7 0.7-16 2.7-4.3 4.7-9.1 7.4-14.2z"/><path class="a" d="m1252.8 2097.6c0-45.6 0.2-91.2-0.2-136.7-0.1-9.4 2.4-17 8.1-24.3q3-3.8 6.2-7.4 3.1-3.6 6.5-7 3.4-3.4 7-6.6 3.6-3.2 7.3-6.2 1.4-1.1 3-2 1.5-0.9 3.2-1.5 1.7-0.6 3.5-1 1.7-0.3 3.5-0.3c16.8 0.1 33.6-0.1 50.4 0.2 3.5 0 7.5 0.8 10.2 2.7 10 6.8 19.5 14.1 26.3 24.2q0.7 1 1.3 2.1 0.6 1 1.1 2.1 0.6 1 1.1 2.1 0.4 1.1 0.8 2.2 0.4 1.3 0.4 2.7 0 1.4-0.5 2.6-0.5 1.3-1.4 2.3-1 1.1-2.2 1.7-1 0.7-2.1 1-1.2 0.3-2.4 0.3-1.2-0.1-2.4-0.5-1.1-0.4-2.1-1.2c-2.1-1.6-3.8-4-5.9-5.9q-7.8-7.4-15.7-14.6-1.2-1.1-2.4-1.8-1.3-0.8-2.7-1.3-1.5-0.6-2.9-0.8-1.5-0.2-3-0.1-20.4 0.1-40.8 0c-4.7 0-8.8 1-12.1 4.3-6.2 6.2-12.4 12.4-18.4 18.9q-1.2 1.3-2.2 2.8-0.9 1.5-1.5 3.2-0.6 1.8-0.9 3.5-0.2 1.8-0.1 3.6c0.2 2.8 0 5.6 0 8.4q0 129 0 258c0 17.6 0.1 17.7 12.5 30.6q0.9 0.8 1.7 1.7c14.9 14.4 12.4 12.1 29.3 12.3 10.4 0.1 20.8-0.2 31.2 0q2.1 0.1 4.2-0.3 2-0.3 4-1.1 2-0.7 3.7-1.9 1.8-1.1 3.3-2.6c4.3-4.1 8.6-8.3 12.8-12.6 2-2 3.9-4.1 6-5.8q0.8-0.7 1.8-1.1 1-0.5 2-0.6 1.1-0.1 2.1 0.1 1.1 0.2 2 0.7c3.4 1.9 5.8 5.5 4.9 8.8q-0.3 1.2-0.7 2.3-0.4 1.1-0.8 2.2-0.5 1.1-1.1 2.1-0.6 1.1-1.2 2.1c-7.3 10.2-16.7 18.3-27.1 25.1q-0.9 0.6-1.8 1-1 0.4-2 0.7-1 0.3-2 0.4-1.1 0.2-2.1 0.2c-18 0.2-36 0.1-54 0.1q-1.5 0-3-0.3-1.5-0.2-2.9-0.7-1.4-0.5-2.7-1.2-1.3-0.7-2.5-1.7-4.8-3.6-9.2-7.6-4.5-4-8.6-8.4-4.1-4.4-7.8-9.1-3.7-4.7-7-9.7-0.8-1.2-1.3-2.4-0.6-1.2-1-2.5-0.4-1.3-0.6-2.6-0.1-1.4-0.1-2.7 0-5.4-0.1-10.8z"/><path class="a" d="m1406.3 2114.5c3.3 8.2 9 13.8 16.1 17.8q1 0.5 2.1 1 1.1 0.4 2.2 0.8 1.2 0.3 2.3 0.5 1.2 0.2 2.4 0.3c5.1 0.4 10.4 0 15.6 0.1q1.6 0 3.2-0.3 1.7-0.4 3.2-1 1.5-0.6 2.9-1.6 1.3-0.9 2.5-2.1c5.9-5.8 9.9-12.7 10.1-21.1 0.3-8.8 0.1-17.6 0.1-26.4 0-6.3-3.2-10.6-8.3-13.6-3.1-1.7-6.4-3.2-10-5 0.3-1.8 0.2-3.5 1-4.7 6.8-10.3 13.9-20.5 21-30.7 0.6-0.9 1.8-1.4 3.3-2.6l25.9 14.7c1.6 2.5 0.3 5.2-0.8 7.7-2.3 4.7-5.8 6.6-10.8 5.5-3.5-0.8-6.8-2.4-10.2-3.4-2.8-0.9-4.6 0.5-5.6 3.1-0.2 3 2.3 4 4 5.5q2 1.8 3.7 4 1.6 2.2 2.8 4.6 1.2 2.5 1.9 5.1 0.7 2.6 0.8 5.3c0.9 13.2 1.4 26.4-1 39.5-2.6 14.7-10.3 25.8-23.5 32.9q-2 1.2-4.1 2-2 0.9-4.2 1.4-2.2 0.6-4.4 0.9-2.3 0.3-4.5 0.3c-4.4-0.2-8.8-0.3-13.2 0q-3.3 0.2-6.6-0.2-3.3-0.4-6.5-1.4-3.1-1-6.1-2.5-2.9-1.6-5.5-3.6-2-1.5-4-3.1-2-1.6-3.9-3.3-2-1.6-3.8-3.3-1.9-1.8-3.7-3.5-1.1-1.1-2-2.3-0.9-1.2-1.7-2.4-0.9-1.3-1.6-2.6-0.7-1.3-1.3-2.7c-2.8-5.6-3-11.3 0.5-17.1 2.7-4.3 5.9-8.6 6.5-14.6-1.9-1.2-3.7-3-5.8-3.6-6.9-2-13.8-4.3-20.9-5.1-9-1-17.4 1.8-24.6 7.5q-1.5 1.2-2.8 2.7-1.2 1.5-2.1 3.3-0.8 1.8-1.2 3.7-0.4 1.9-0.3 3.9c0.2 9.2 2.3 17.2 10.4 23 6.2 4.4 7.5 11 6 18.2-1.4 6.2-6.3 9.4-12.5 8.4-12.8-2-21.5-11.6-21.9-24.7-0.3-9.6-0.1-19.2-0.1-28.8 0.1-9.6 4.4-16.9 11.6-22.8q2.4-2 5-3.7 2.7-1.7 5.5-3.1 2.9-1.3 5.9-2.3 3-1 6.1-1.6c5.5-1 11-1.7 16.7-2.6l0.4-0.6-7.3-4c0.1-1.2-0.3-2.6 0.3-3.4q10.3-14.8 20.8-29.3c0.4-0.6 1.3-0.9 2.7-1.6l25 13c1.4 4.1-0.3 7.6-2.9 10.8q-0.8 1.1-1.9 1.9-1.1 0.8-2.4 1.2-1.3 0.5-2.7 0.5-1.3 0.1-2.7-0.2c-3-0.6-6-1.5-9.3-2.3 0.1 3.7 2.9 4 4.7 5.2q1.7 1.2 3.3 2.6 1.6 1.4 2.9 3 1.3 1.6 2.4 3.4 1.1 1.8 1.9 3.8 0.5 1.3 1.2 2.7 0.7 1.3 1.4 2.6 0.8 1.2 1.6 2.5 0.9 1.2 1.8 2.3c8.1 10.9 8.4 15 1.4 27.2-1.6 2.8-2.9 5.7-4.4 8.4z"/><path fill-rule="evenodd" class="a" d="m1479.6 2207.2c0 6.8 0.3 13.6 0 20.4-0.4 6.5-4.4 9.2-10.6 7.7q-0.3-0.1-0.6-0.2-0.3-0.1-0.6-0.2-0.3-0.1-0.6-0.2-0.2 0-0.5-0.1c-11.6-4-14.4-10.3-8.8-21 2-4 3.8-7.8 3.9-12.4 0.4-10.9 0.1-11.9-10.2-16.2-13.5-5.9-10.2-7.2-26.7 0.6q-0.6 0.2-1.1 0.4-0.6 0.3-1.1 0.6-0.5 0.3-1 0.6-0.6 0.3-1 0.7c-1.2 1-2.6 2.4-2.6 3.6 0 1 1.7 2.4 3 3 1.8 0.8 3.9 0.9 5.7 1.6 8.6 3.4 12.6 11.3 10.5 20.4q-0.5 2.3-1.4 4.5-1 2.3-2.3 4.3-1.3 2-2.9 3.8-1.7 1.7-3.6 3.2c-5.5 4.4-10.8 4.8-16.6 0.9-7.5-5.2-12.9-12-13.1-21.7-0.2-7.6 0-15.2 0-22.8 0-5.9 2.8-9.9 8-12.3 9.5-4.3 19-8.5 28.4-12.9q1.2-0.6 2.5-0.9 1.3-0.3 2.7-0.3 1.3 0 2.7 0.3 1.3 0.3 2.5 0.9 13.6 6.3 27.3 12.4c5.7 2.6 8.5 7 8.3 13.3-0.2 6 0 12 0 18zm-61.9 11.5q-0.1 0-0.1 0 0 0 0 0zm2.5-1.1q0.2-0.5 0.3-1.1 0.1-0.5 0.1-1.1 0.1-0.5 0.1-1.1 0-0.5-0.1-1.1c0-0.4-1.4-1.3-1.6-1.2-0.8 0.7-1.9 1.5-2 2.4-0.1 1.3 0.4 2.7 0.7 4.3 1.3-0.5 2.4-0.7 2.5-1.1z"/><path class="a" d="m236.3 1504.9c-10.8-3.8-19.4-7.6-28.6-3.4-7.8 3.6-14.5 8.2-18.6 16.5 2.5 4.2 7.1 5.1 10.6 7.4q1.2 0.7 2.3 1.4 1.1 0.8 2.2 1.5 1.1 0.8 2.1 1.6 1.1 0.9 2.1 1.7c2.6 2.5 2.4 6-0.1 8.6-2.8 2.9-5.9 5.4-8.7 8.3q-0.6 0.6-0.9 1.5-0.3 0.8-0.3 1.7 0 1 0.4 1.8 0.4 0.8 1.1 1.4c3.5 3.4 7.5 5.8 12.6 6.1 9.4 0.7 18.4 0.1 25.2-7.6 1-1.1 2.6-1.7 3.7-2.4 3.5 1.9 2.3 4.4 1.1 6.2-8.1 11.9-19.3 15.7-34.8 9.7-10.2-4-17.9-11.8-24-20.9-4.9-7.1-5.4-15.3-2.9-23 5.6-17.4 18.6-27.1 36-28.8 3.8-0.4 7.9 1 11.6 2.2 3 0.9 5.8 2.7 7.9 8.5z"/></svg>